<svg width="148" height="40" viewBox="0 0 148 40" fill="none" xmlns="http://www.w3.org/2000/svg">
<path d="M11.3174 3.06204C13.5417 2.14076 15.9258 1.6665 18.3333 1.6665V10.8332C17.1295 10.8332 15.9375 11.0702 14.8254 11.531C13.7132 11.9916 12.7027 12.6668 11.8515 13.518C11.0003 14.3692 10.3251 15.3797 9.86449 16.4919C9.40374 17.604 9.16667 18.796 9.16667 19.9998H0C0 17.5923 0.474257 15.2082 1.39553 12.9839C2.31691 10.7596 3.6673 8.73867 5.36968 7.03618C7.07216 5.3338 9.09313 3.98342 11.3174 3.06204Z" fill="#155EEF"/>
<path d="M0 20C0 22.4075 0.474257 24.7916 1.39553 27.0159C2.31691 29.2402 3.6673 31.2612 5.36968 32.9637C7.07216 34.666 9.09312 36.0164 11.3174 36.9378C13.5417 37.8591 15.9258 38.3333 18.3333 38.3333C20.7409 38.3333 23.1249 37.8591 25.3492 36.9378C27.5735 36.0164 29.5945 34.666 31.297 32.9637C32.9994 31.2612 34.3498 29.2402 35.2711 27.0159C36.1924 24.7916 36.6667 22.4075 36.6667 20H27.5C27.5 21.2038 27.2629 22.3958 26.8022 23.508C26.3415 24.6201 25.6664 25.6306 24.8152 26.4818C23.964 27.333 22.9534 28.0082 21.8413 28.4688C20.7291 28.9296 19.5372 29.1667 18.3333 29.1667C17.1295 29.1667 15.9375 28.9296 14.8254 28.4688C13.7132 28.0082 12.7027 27.333 11.8515 26.4818C11.0003 25.6306 10.3251 24.6201 9.86449 23.508C9.40374 22.3958 9.16667 21.2038 9.16667 20H0Z" fill="#84ADFF"/>
<path d="M18.3333 14.1665C15.1117 14.1665 12.5 16.7782 12.5 19.9998H24.1667C24.1667 16.7782 21.555 14.1665 18.3333 14.1665Z" fill="#84ADFF"/>
<path d="M18.3333 25.833C15.1117 25.833 12.5 23.2213 12.5 19.9997H24.1667C24.1667 23.2213 21.555 25.833 18.3333 25.833Z" fill="#155EEF"/>
<path d="M55.6808 16.1686C55.6145 15.5002 55.3301 14.9809 54.8274 14.6108C54.3247 14.2407 53.6425 14.0557 52.7807 14.0557C52.1952 14.0557 51.7008 14.1385 51.2975 14.3043C50.8943 14.4645 50.5849 14.6882 50.3695 14.9754C50.1596 15.2627 50.0546 15.5886 50.0546 15.9532C50.0436 16.257 50.1071 16.5221 50.2452 16.7486C50.3888 16.9751 50.5849 17.1712 50.8335 17.3369C51.0821 17.4971 51.3694 17.638 51.6953 17.7595C52.0212 17.8755 52.3692 17.975 52.7393 18.0578L54.2639 18.4224C55.0041 18.5881 55.6836 18.8091 56.3023 19.0853C56.921 19.3615 57.4568 19.7012 57.9098 20.1044C58.3627 20.5077 58.7135 20.9828 58.9621 21.5296C59.2162 22.0765 59.346 22.7035 59.3515 23.4106C59.346 24.4491 59.0808 25.3495 58.5561 26.1118C58.0368 26.8686 57.2855 27.4569 56.3023 27.8767C55.3245 28.291 54.1452 28.4982 52.7642 28.4982C51.3942 28.4982 50.201 28.2882 49.1846 27.8684C48.1737 27.4486 47.3838 26.8271 46.8148 26.0041C46.2514 25.1755 45.9558 24.1508 45.9282 22.93H49.4001C49.4387 23.4989 49.6017 23.974 49.8889 24.3552C50.1817 24.7308 50.5711 25.0153 51.0572 25.2086C51.5489 25.3964 52.104 25.4903 52.7227 25.4903C53.3304 25.4903 53.8579 25.402 54.3054 25.2252C54.7583 25.0484 55.1091 24.8026 55.3577 24.4877C55.6063 24.1729 55.7305 23.811 55.7305 23.4023C55.7305 23.0211 55.6173 22.7007 55.3908 22.4411C55.1699 22.1815 54.8439 21.9605 54.4131 21.7782C53.9877 21.5959 53.4657 21.4302 52.847 21.2811L50.9992 20.817C49.5685 20.469 48.4389 19.9249 47.6103 19.1847C46.7817 18.4445 46.3701 17.4474 46.3757 16.1935C46.3701 15.166 46.6436 14.2684 47.196 13.5005C47.7539 12.7327 48.519 12.1333 49.4912 11.7025C50.4634 11.2716 51.5682 11.0562 52.8056 11.0562C54.0651 11.0562 55.1643 11.2716 56.1034 11.7025C57.048 12.1333 57.7827 12.7327 58.3075 13.5005C58.8323 14.2684 59.1029 15.1577 59.1195 16.1686H55.6808Z" fill="#101828"/>
<path d="M67.4987 28.5064C66.1895 28.5064 65.0626 28.2413 64.118 27.711C63.179 27.1752 62.4553 26.4184 61.9471 25.4406C61.4389 24.4574 61.1848 23.2946 61.1848 21.9522C61.1848 20.643 61.4389 19.494 61.9471 18.5053C62.4553 17.5165 63.1707 16.7459 64.0932 16.1935C65.0212 15.6411 66.1094 15.3649 67.3579 15.3649C68.1975 15.3649 68.9791 15.5002 69.7028 15.7709C70.432 16.036 71.0672 16.4365 71.6086 16.9723C72.1554 17.5082 72.5808 18.1821 72.8846 18.9941C73.1884 19.8006 73.3403 20.7452 73.3403 21.8279V22.7974H62.5934V20.6099H70.0177C70.0177 20.1017 69.9072 19.6515 69.6862 19.2593C69.4653 18.8671 69.1587 18.5605 68.7665 18.3395C68.3798 18.113 67.9296 17.9998 67.4159 17.9998C66.88 17.9998 66.405 18.1241 65.9907 18.3727C65.5819 18.6157 65.2615 18.9444 65.0295 19.3587C64.7975 19.7675 64.6787 20.2232 64.6732 20.7259V22.8057C64.6732 23.4354 64.7892 23.9795 65.0212 24.438C65.2587 24.8965 65.5929 25.25 66.0238 25.4986C66.4547 25.7472 66.9656 25.8715 67.5567 25.8715C67.9489 25.8715 68.308 25.8163 68.6339 25.7058C68.9598 25.5953 69.2388 25.4296 69.4708 25.2086C69.7028 24.9877 69.8796 24.717 70.0011 24.3966L73.2658 24.612C73.1 25.3964 72.7603 26.0814 72.2466 26.6669C71.7384 27.247 71.081 27.6999 70.2745 28.0259C69.4735 28.3462 68.5483 28.5064 67.4987 28.5064Z" fill="#101828"/>
<path d="M81.3777 33.2957C80.2343 33.2957 79.2538 33.1383 78.4362 32.8234C77.6242 32.5141 76.9779 32.0915 76.4973 31.5557C76.0167 31.0199 75.7046 30.4177 75.561 29.7493L78.8257 29.3102C78.9251 29.5643 79.0825 29.8018 79.298 30.0228C79.5134 30.2437 79.7979 30.4205 80.1514 30.5531C80.5105 30.6912 80.9469 30.7602 81.4606 30.7602C82.2284 30.7602 82.8609 30.5724 83.3581 30.1968C83.8608 29.8267 84.1121 29.2052 84.1121 28.3324V26.0041H83.963C83.8083 26.3576 83.5763 26.6918 83.2669 27.0067C82.9576 27.3215 82.5599 27.5784 82.0738 27.7773C81.5877 27.9761 81.0076 28.0756 80.3337 28.0756C79.3781 28.0756 78.508 27.8546 77.7236 27.4127C76.9447 26.9652 76.3233 26.283 75.8593 25.366C75.4008 24.4435 75.1715 23.278 75.1715 21.8694C75.1715 20.4276 75.4063 19.2234 75.8758 18.2567C76.3454 17.29 76.9696 16.5663 77.7485 16.0857C78.5329 15.6052 79.3919 15.3649 80.3254 15.3649C81.038 15.3649 81.6346 15.4864 82.1152 15.7294C82.5958 15.967 82.9825 16.2653 83.2752 16.6243C83.5735 16.9779 83.8028 17.3259 83.963 17.6684H84.0955V15.5306H87.6005V28.3821C87.6005 29.4648 87.3354 30.3708 86.8051 31.1C86.2748 31.8291 85.5401 32.376 84.601 32.7406C83.6674 33.1107 82.593 33.2957 81.3777 33.2957ZM81.4523 25.4241C82.0213 25.4241 82.5019 25.2832 82.8941 25.0015C83.2918 24.7142 83.5956 24.3054 83.8055 23.7751C84.021 23.2393 84.1287 22.5985 84.1287 21.8528C84.1287 21.1071 84.0237 20.4607 83.8138 19.9139C83.6039 19.3615 83.3001 18.9334 82.9024 18.6295C82.5046 18.3257 82.0213 18.1738 81.4523 18.1738C80.8723 18.1738 80.3834 18.3312 79.9857 18.6461C79.588 18.9555 79.2869 19.3863 79.0825 19.9387C78.8781 20.4911 78.7759 21.1291 78.7759 21.8528C78.7759 22.5875 78.8781 23.2227 79.0825 23.7586C79.2924 24.2889 79.5935 24.7004 79.9857 24.9932C80.3834 25.2804 80.8723 25.4241 81.4523 25.4241Z" fill="#101828"/>
<path d="M90.4095 28.2579V15.5306H93.7736V17.7761H93.9227C94.1879 17.0303 94.6298 16.442 95.2485 16.0112C95.8672 15.5803 96.6074 15.3649 97.4691 15.3649C98.3419 15.3649 99.0849 15.5831 99.698 16.0195C100.311 16.4503 100.72 17.0359 100.924 17.7761H101.057C101.317 17.0469 101.786 16.4641 102.466 16.0277C103.151 15.5858 103.96 15.3649 104.893 15.3649C106.081 15.3649 107.045 15.7433 107.785 16.5C108.531 17.2513 108.904 18.3174 108.904 19.6984V28.2579H105.382V20.3945C105.382 19.6874 105.194 19.1571 104.819 18.8035C104.443 18.45 103.974 18.2732 103.41 18.2732C102.769 18.2732 102.269 18.4776 101.91 18.8864C101.551 19.2897 101.372 19.8227 101.372 20.4856V28.2579H97.9497V20.3199C97.9497 19.6957 97.7702 19.1985 97.4111 18.8284C97.0576 18.4583 96.5908 18.2732 96.0108 18.2732C95.6186 18.2732 95.265 18.3727 94.9502 18.5715C94.6408 18.7649 94.395 19.0383 94.2127 19.3919C94.0304 19.7399 93.9393 20.1486 93.9393 20.6182V28.2579H90.4095Z" fill="#101828"/>
<path d="M117.492 28.5064C116.183 28.5064 115.056 28.2413 114.112 27.711C113.172 27.1752 112.449 26.4184 111.941 25.4406C111.432 24.4574 111.178 23.2946 111.178 21.9522C111.178 20.643 111.432 19.494 111.941 18.5053C112.449 17.5165 113.164 16.7459 114.087 16.1935C115.015 15.6411 116.103 15.3649 117.351 15.3649C118.191 15.3649 118.973 15.5002 119.696 15.7709C120.425 16.036 121.061 16.4365 121.602 16.9723C122.149 17.5082 122.574 18.1821 122.878 18.9941C123.182 19.8006 123.334 20.7452 123.334 21.8279V22.7974H112.587V20.6099H120.011C120.011 20.1017 119.901 19.6515 119.68 19.2593C119.459 18.8671 119.152 18.5605 118.76 18.3395C118.373 18.113 117.923 17.9998 117.409 17.9998C116.874 17.9998 116.398 18.1241 115.984 18.3727C115.575 18.6157 115.255 18.9444 115.023 19.3587C114.791 19.7675 114.672 20.2232 114.667 20.7259V22.8057C114.667 23.4354 114.783 23.9795 115.015 24.438C115.252 24.8965 115.586 25.25 116.017 25.4986C116.448 25.7472 116.959 25.8715 117.55 25.8715C117.942 25.8715 118.301 25.8163 118.627 25.7058C118.953 25.5953 119.232 25.4296 119.464 25.2086C119.696 24.9877 119.873 24.717 119.995 24.3966L123.259 24.612C123.094 25.3964 122.754 26.0814 122.24 26.6669C121.732 27.247 121.075 27.6999 120.268 28.0259C119.467 28.3462 118.542 28.5064 117.492 28.5064Z" fill="#101828"/>
<path d="M129.167 20.8999V28.2579H125.637V15.5306H129.001V17.7761H129.151C129.432 17.0359 129.905 16.4503 130.567 16.0195C131.23 15.5831 132.034 15.3649 132.979 15.3649C133.863 15.3649 134.633 15.5582 135.29 15.9449C135.948 16.3316 136.459 16.884 136.823 17.6021C137.188 18.3147 137.37 19.1654 137.37 20.1542V28.2579H133.84V20.7839C133.846 20.005 133.647 19.3974 133.244 18.961C132.841 18.5191 132.285 18.2981 131.578 18.2981C131.103 18.2981 130.683 18.4003 130.319 18.6047C129.96 18.8091 129.678 19.1074 129.474 19.4996C129.275 19.8863 129.173 20.353 129.167 20.8999Z" fill="#101828"/>
<path d="M146.922 15.5306V18.1821H139.257V15.5306H146.922ZM140.997 12.4813H144.527V24.3469C144.527 24.6728 144.577 24.9269 144.676 25.1092C144.776 25.286 144.914 25.4102 145.091 25.4821C145.273 25.5539 145.483 25.5898 145.72 25.5898C145.886 25.5898 146.052 25.576 146.218 25.5483C146.383 25.5152 146.51 25.4903 146.599 25.4738L147.154 28.1004C146.977 28.1557 146.729 28.2192 146.408 28.291C146.088 28.3683 145.698 28.4153 145.24 28.4319C144.389 28.465 143.643 28.3518 143.003 28.0921C142.367 27.8325 141.873 27.4293 141.519 26.8824C141.166 26.3355 140.992 25.645 140.997 24.8109V12.4813Z" fill="#101828"/>
</svg>
