<svg width="152" height="40" viewBox="0 0 152 40" fill="none" xmlns="http://www.w3.org/2000/svg">
<g clip-path="url(#clip0_7001_1759)">
<path d="M22.7246 3.43466L19.2073 2.49219L16.2432 13.5544L13.5672 3.56736L10.0498 4.50984L12.9411 15.3001L5.73953 8.09859L3.16465 10.6735L11.0638 18.5727L1.22665 15.9368L0.28418 19.4542L11.0325 22.3342C10.9095 21.8034 10.8444 21.2504 10.8444 20.6821C10.8444 16.6599 14.105 13.3992 18.1273 13.3992C22.1495 13.3992 25.4102 16.6599 25.4102 20.6821C25.4102 21.2467 25.3459 21.7964 25.2243 22.324L34.9926 24.9414L35.935 21.4241L25.1439 18.5326L34.9818 15.8965L34.0393 12.3792L23.2486 15.2705L30.4501 8.06903L27.8752 5.49414L20.0856 13.2838L22.7246 3.43466Z" fill="#FF4405"/>
<path d="M25.214 22.365C24.9125 23.6399 24.2758 24.7852 23.4023 25.7029L30.4789 32.7796L33.0538 30.2047L25.214 22.365Z" fill="#FF4405"/>
<path d="M23.3308 25.7769C22.4467 26.6798 21.3294 27.3537 20.0765 27.701L22.6516 37.3112L26.1689 36.3687L23.3308 25.7769Z" fill="#FF4405"/>
<path d="M19.9451 27.7361C19.3638 27.8856 18.7546 27.965 18.1267 27.965C17.454 27.965 16.8025 27.8738 16.1841 27.703L13.6067 37.322L17.124 38.2645L19.9451 27.7361Z" fill="#FF4405"/>
<path d="M16.0598 27.6676C14.826 27.3031 13.7286 26.6206 12.8625 25.715L5.76843 32.8091L8.34332 35.384L16.0598 27.6676Z" fill="#FF4405"/>
<path d="M12.8041 25.6523C11.9529 24.741 11.3328 23.611 11.0377 22.3557L1.23755 24.9817L2.18002 28.499L12.8041 25.6523Z" fill="#FF4405"/>
</g>
<path d="M57.1001 10.7578V23.4328L48.9751 10.7578H45.7251V28.2578H48.9751V15.6828L57.1001 28.2578H60.3501V10.7578H57.1001Z" fill="#101828"/>
<path d="M61.8146 14.0328H65.1646V10.7578H61.8146V14.0328ZM61.8646 28.2578V15.7578H65.1146V28.2578H61.8646Z" fill="#101828"/>
<path d="M79.098 22.0078C79.098 17.6828 76.023 15.6328 72.773 15.6078C69.498 15.5828 66.4729 17.6828 66.4729 22.0078C66.4729 26.3328 69.498 28.4328 72.773 28.4078C75.748 28.3828 77.798 27.0078 78.748 24.7328L76.223 23.6828C75.448 25.2328 74.223 25.7828 72.773 25.8078C71.523 25.8328 70.0979 25.2328 69.7979 23.0078H79.023C79.073 22.6828 79.098 22.3578 79.098 22.0078ZM72.773 18.1828C74.023 18.2078 75.298 18.8828 75.698 20.6828H69.8479C70.273 18.8578 71.548 18.1578 72.773 18.1828Z" fill="#101828"/>
<path d="M86.6089 18.0828V15.6078H84.5589V12.2578L81.3089 13.2578V15.6078H79.2589V18.0828H81.3089V24.5578C81.3089 27.0078 81.5089 28.2578 85.3089 28.2578H86.1839V25.4078H85.3089C84.7089 25.4078 84.5589 25.3078 84.5589 24.5578V18.0828H86.6089Z" fill="#101828"/>
<path d="M91.4382 25.5328L98.3382 18.4828V15.7578H87.9882V18.4828H94.6882L87.7882 25.5328V28.2578H98.4132V25.5328H91.4382Z" fill="#101828"/>
<path d="M99.5784 24.7328L102.853 24.2328C103.078 25.4828 104.553 25.9578 105.453 25.9578C106.378 25.9578 107.978 25.7578 107.978 24.2578C107.978 21.3328 99.9534 24.9828 99.9534 19.3828C99.9534 15.7828 104.128 15.5828 105.453 15.5828C106.703 15.5828 110.328 15.7828 111.078 18.6828L107.978 19.3328C107.703 18.0078 106.303 17.7578 105.553 17.7578C104.803 17.7578 103.203 17.9328 103.203 19.3828C103.203 22.2828 111.228 18.5828 111.228 24.2578C111.228 28.0828 106.828 28.4078 105.453 28.4078C104.203 28.4078 100.228 28.0828 99.5784 24.7328Z" fill="#101828"/>
<path d="M115.45 22.0078C115.45 25.0578 117.075 25.9828 118.775 25.9578C120.3 25.9328 121.35 25.3078 121.975 23.5578L124.65 24.8578C123.675 27.4078 121.3 28.3828 118.775 28.4078C115.5 28.4328 112.2 26.3328 112.2 22.0078C112.2 17.6828 115.5 15.5828 118.775 15.6078C121.3 15.6328 123.675 16.6078 124.65 19.1578L121.975 20.4578C121.35 18.7078 120.3 18.0828 118.775 18.0578C117.075 18.0328 115.45 18.9578 115.45 22.0078Z" fill="#101828"/>
<path d="M133.375 15.5578C131.7 15.5578 130.175 16.4328 129.2 18.3078V10.7578H125.95V28.2578H129.2V23.8328C129.2 18.1078 131.575 17.6328 132.45 17.6328C133.85 17.6328 134.05 19.0828 134.05 21.2078V28.2578H137.3V21.2078C137.3 18.5578 136.875 15.5578 133.375 15.5578Z" fill="#101828"/>
<path d="M151.022 22.0078C151.022 17.6828 147.947 15.6328 144.697 15.6078C141.422 15.5828 138.397 17.6828 138.397 22.0078C138.397 26.3328 141.422 28.4328 144.697 28.4078C147.672 28.3828 149.722 27.0078 150.672 24.7328L148.147 23.6828C147.372 25.2328 146.147 25.7828 144.697 25.8078C143.447 25.8328 142.022 25.2328 141.722 23.0078H150.947C150.997 22.6828 151.022 22.3578 151.022 22.0078ZM144.697 18.1828C145.947 18.2078 147.222 18.8828 147.622 20.6828H141.772C142.197 18.8578 143.472 18.1578 144.697 18.1828Z" fill="#101828"/>
<defs>
<clipPath id="clip0_7001_1759">
<rect width="36.6667" height="36.6667" fill="white" transform="translate(0 1.6665)"/>
</clipPath>
</defs>
</svg>
