<svg width="156" height="40" viewBox="0 0 156 40" fill="none" xmlns="http://www.w3.org/2000/svg">
<path fill-rule="evenodd" clip-rule="evenodd" d="M18.3333 30.3887C24.071 30.3887 28.7222 25.7375 28.7222 19.9998C28.7222 14.2622 24.071 9.61095 18.3333 9.61095C12.5957 9.61095 7.94444 14.2622 7.94444 19.9998C7.94444 25.7375 12.5957 30.3887 18.3333 30.3887ZM18.3333 38.3332C28.4585 38.3332 36.6667 30.1251 36.6667 19.9998C36.6667 9.87462 28.4585 1.6665 18.3333 1.6665C8.20811 1.6665 0 9.87462 0 19.9998C0 30.1251 8.20811 38.3332 18.3333 38.3332Z" fill="#6938EF"/>
<path d="M18.543 20.4013C20.4523 18.4921 23.5477 18.4921 25.457 20.4013L34.9636 29.908C36.8728 31.8172 36.8729 34.9127 34.9636 36.8219C33.0544 38.7311 29.9589 38.7311 28.0497 36.8219L18.543 27.3152C16.6338 25.406 16.6338 22.3105 18.543 20.4013Z" fill="#F670C7"/>
<path d="M21.2124 29.9845L27.2502 36.0222C30.1462 34.4071 32.5589 32.0296 34.217 29.1612L28.2286 23.1729C27.1768 26.4557 24.5366 29.0277 21.2124 29.9845Z" fill="#6519BA"/>
<path d="M66.2667 30.0836C65.7378 30.7369 65.0922 31.2347 64.33 31.5769C63.5833 31.9191 62.7589 32.0902 61.8567 32.0902C60.6433 32.0902 59.5467 31.8258 58.5667 31.2969C57.5867 30.7836 56.4667 29.8658 55.2067 28.5436C53.7289 28.3569 52.4067 27.8824 51.24 27.1202C50.0889 26.358 49.1867 25.378 48.5333 24.1802C47.8955 22.9669 47.5767 21.6291 47.5767 20.1669C47.5767 18.5647 47.9578 17.1258 48.72 15.8502C49.4978 14.5591 50.5633 13.548 51.9167 12.8169C53.2855 12.0858 54.8178 11.7202 56.5133 11.7202C58.2089 11.7202 59.7333 12.0858 61.0867 12.8169C62.44 13.548 63.5055 14.5591 64.2833 15.8502C65.0611 17.1258 65.45 18.5647 65.45 20.1669C65.45 22.0647 64.9133 23.7291 63.84 25.1602C62.7822 26.5913 61.3744 27.5869 59.6167 28.1469C60.0055 28.5513 60.3789 28.8391 60.7367 29.0102C61.11 29.1969 61.5067 29.2902 61.9267 29.2902C62.9378 29.2902 63.8244 28.8858 64.5867 28.0769L66.2667 30.0836ZM51.4033 20.1669C51.4033 21.178 51.6211 22.0802 52.0567 22.8735C52.5078 23.6669 53.1222 24.2891 53.9 24.7402C54.6778 25.1758 55.5489 25.3935 56.5133 25.3935C57.4778 25.3935 58.3489 25.1758 59.1267 24.7402C59.9044 24.2891 60.5111 23.6669 60.9467 22.8735C61.3978 22.0802 61.6233 21.178 61.6233 20.1669C61.6233 19.1558 61.3978 18.2535 60.9467 17.4602C60.5111 16.6669 59.9044 16.0524 59.1267 15.6169C58.3489 15.1658 57.4778 14.9402 56.5133 14.9402C55.5489 14.9402 54.6778 15.1658 53.9 15.6169C53.1222 16.0524 52.5078 16.6669 52.0567 17.4602C51.6211 18.2535 51.4033 19.1558 51.4033 20.1669Z" fill="#101828"/>
<path d="M80.6808 15.7802V28.3335H77.2275V26.8402C76.7453 27.3847 76.1697 27.8047 75.5008 28.1002C74.8319 28.3802 74.1086 28.5202 73.3308 28.5202C71.6819 28.5202 70.3753 28.0458 69.4108 27.0969C68.4464 26.148 67.9642 24.7402 67.9642 22.8735V15.7802H71.6042V22.3369C71.6042 24.3591 72.4519 25.3702 74.1475 25.3702C75.0186 25.3702 75.7186 25.0902 76.2475 24.5302C76.7764 23.9547 77.0408 23.1069 77.0408 21.9869V15.7802H80.6808Z" fill="#101828"/>
<path d="M90.0264 28.5202C88.7042 28.5202 87.5142 28.248 86.4564 27.7036C85.4142 27.1435 84.5975 26.3736 84.0064 25.3935C83.4153 24.4135 83.1197 23.3013 83.1197 22.0569C83.1197 20.8124 83.4153 19.7002 84.0064 18.7202C84.5975 17.7402 85.4142 16.978 86.4564 16.4335C87.5142 15.8735 88.7042 15.5935 90.0264 15.5935C91.3486 15.5935 92.5308 15.8735 93.573 16.4335C94.6153 16.978 95.4319 17.7402 96.023 18.7202C96.6142 19.7002 96.9097 20.8124 96.9097 22.0569C96.9097 23.3013 96.6142 24.4135 96.023 25.3935C95.4319 26.3736 94.6153 27.1435 93.573 27.7036C92.5308 28.248 91.3486 28.5202 90.0264 28.5202ZM90.0264 25.5335C90.9597 25.5335 91.7219 25.2224 92.313 24.6002C92.9197 23.9624 93.223 23.1147 93.223 22.0569C93.223 20.9991 92.9197 20.1591 92.313 19.5369C91.7219 18.8991 90.9597 18.5802 90.0264 18.5802C89.093 18.5802 88.323 18.8991 87.7164 19.5369C87.1097 20.1591 86.8064 20.9991 86.8064 22.0569C86.8064 23.1147 87.1097 23.9624 87.7164 24.6002C88.323 25.2224 89.093 25.5335 90.0264 25.5335Z" fill="#101828"/>
<path d="M107.439 27.7269C107.082 27.9913 106.638 28.1936 106.109 28.3335C105.596 28.458 105.052 28.5202 104.476 28.5202C102.983 28.5202 101.824 28.1391 100.999 27.3769C100.191 26.6147 99.7861 25.4947 99.7861 24.0169V18.8602H97.8494V16.0602H99.7861V13.0035H103.426V16.0602H106.553V18.8602H103.426V23.9702C103.426 24.4991 103.558 24.9113 103.823 25.2069C104.103 25.4869 104.492 25.6269 104.989 25.6269C105.565 25.6269 106.055 25.4713 106.459 25.1602L107.439 27.7269Z" fill="#101828"/>
<path d="M109.483 15.7802H113.123V28.3335H109.483V15.7802ZM111.303 14.0302C110.634 14.0302 110.089 13.8358 109.669 13.4469C109.249 13.058 109.039 12.5758 109.039 12.0002C109.039 11.4247 109.249 10.9424 109.669 10.5535C110.089 10.1647 110.634 9.97021 111.303 9.97021C111.972 9.97021 112.516 10.1569 112.936 10.5302C113.356 10.9035 113.566 11.3702 113.566 11.9302C113.566 12.5369 113.356 13.0424 112.936 13.4469C112.516 13.8358 111.972 14.0302 111.303 14.0302Z" fill="#101828"/>
<path d="M128.798 22.1035C128.798 22.1502 128.774 22.4769 128.728 23.0835H119.231C119.402 23.8613 119.807 24.4758 120.444 24.9269C121.082 25.378 121.875 25.6035 122.824 25.6035C123.478 25.6035 124.053 25.5102 124.551 25.3236C125.064 25.1213 125.539 24.8102 125.974 24.3902L127.911 26.4902C126.729 27.8435 125.002 28.5202 122.731 28.5202C121.315 28.5202 120.063 28.248 118.974 27.7036C117.885 27.1435 117.045 26.3736 116.454 25.3935C115.863 24.4135 115.568 23.3013 115.568 22.0569C115.568 20.828 115.855 19.7235 116.431 18.7436C117.022 17.748 117.823 16.978 118.834 16.4335C119.861 15.8735 121.004 15.5935 122.264 15.5935C123.493 15.5935 124.605 15.858 125.601 16.3869C126.597 16.9158 127.374 17.678 127.934 18.6735C128.51 19.6535 128.798 20.7969 128.798 22.1035ZM122.288 18.3469C121.463 18.3469 120.771 18.5802 120.211 19.0469C119.651 19.5135 119.309 20.1513 119.184 20.9602H125.368C125.243 20.1669 124.901 19.5369 124.341 19.0702C123.781 18.588 123.097 18.3469 122.288 18.3469Z" fill="#101828"/>
<path d="M138.851 15.5935C140.407 15.5935 141.659 16.0602 142.608 16.9935C143.572 17.9269 144.054 19.3113 144.054 21.1469V28.3335H140.414V21.7069C140.414 20.7113 140.197 19.9724 139.761 19.4902C139.325 18.9924 138.695 18.7436 137.871 18.7436C136.953 18.7436 136.222 19.0313 135.678 19.6069C135.133 20.1669 134.861 21.0069 134.861 22.1269V28.3335H131.221V15.7802H134.698V17.2502C135.18 16.7213 135.779 16.3169 136.494 16.0369C137.21 15.7413 137.995 15.5935 138.851 15.5935Z" fill="#101828"/>
<path d="M155.45 27.7269C155.093 27.9913 154.649 28.1936 154.12 28.3335C153.607 28.458 153.063 28.5202 152.487 28.5202C150.994 28.5202 149.835 28.1391 149.01 27.3769C148.202 26.6147 147.797 25.4947 147.797 24.0169V18.8602H145.86V16.0602H147.797V13.0035H151.437V16.0602H154.564V18.8602H151.437V23.9702C151.437 24.4991 151.569 24.9113 151.834 25.2069C152.114 25.4869 152.503 25.6269 153 25.6269C153.576 25.6269 154.066 25.4713 154.47 25.1602L155.45 27.7269Z" fill="#101828"/>
</svg>
