<svg width="134" height="40" viewBox="0 0 134 40" fill="none" xmlns="http://www.w3.org/2000/svg">
<path d="M18.3333 1.6665C8.20807 1.6665 0 9.87462 0 19.9998C0 30.1251 8.20807 38.3332 18.3333 38.3332C27.4175 38.3332 34.9585 31.7262 36.4132 23.0554H36.2816C34.9248 28.3269 30.1395 32.2221 24.4444 32.2221C17.6943 32.2221 12.2222 26.75 12.2222 19.9998C12.2222 13.2497 17.6943 7.77761 24.4444 7.77761C30.1395 7.77761 34.9248 11.6727 36.2816 16.9443H36.4132C34.9585 8.27349 27.4175 1.6665 18.3333 1.6665Z" fill="#A4BCFD"/>
<path d="M0 19.9998C0 9.87462 8.20811 1.6665 18.3333 1.6665C27.4175 1.6665 34.9585 8.27349 36.4132 16.9443H24.0594C22.7026 11.6728 17.9173 7.77761 12.2222 7.77761C5.47207 7.77761 0 13.2497 0 19.9998Z" fill="#3538CD"/>
<path d="M0 19.9997C0 30.1249 8.20811 38.333 18.3333 38.333C27.4175 38.333 34.9585 31.726 36.4132 23.0552H24.0594C22.7026 28.3268 17.9173 32.2219 12.2222 32.2219C5.47207 32.2219 0 26.7498 0 19.9997Z" fill="#3538CD"/>
<path d="M62.8659 17.0895C62.3438 13.3193 59.4438 11.1318 55.6819 11.1318C51.2489 11.1318 47.9097 14.3634 47.9097 19.8487C47.9097 25.3257 51.2075 28.5655 55.6819 28.5655C59.7172 28.5655 62.3936 25.9555 62.8659 22.7156L59.7669 22.6991C59.3775 24.6877 57.7534 25.8063 55.7234 25.8063C52.9724 25.8063 51.0003 23.7431 51.0003 19.8487C51.0003 16.0206 52.9558 13.8911 55.7316 13.8911C57.7948 13.8911 59.4106 15.0594 59.7669 17.0895H62.8659Z" fill="#101828"/>
<path d="M69.2109 28.5904C71.2078 28.5904 72.401 27.6541 72.9478 26.5852H73.0473V28.3335H75.9308V19.8155C75.9308 16.4514 73.1881 15.4405 70.7603 15.4405C68.084 15.4405 66.029 16.6337 65.3662 18.9538L68.1668 19.3515C68.4651 18.4815 69.3103 17.7358 70.7769 17.7358C72.169 17.7358 72.9313 18.4484 72.9313 19.6995V19.7493C72.9313 20.611 72.0281 20.6524 69.7826 20.8927C67.3134 21.1579 64.9519 21.8953 64.9519 24.7623C64.9519 27.2647 66.7831 28.5904 69.2109 28.5904ZM69.9897 26.3863C68.7386 26.3863 67.8437 25.8146 67.8437 24.7126C67.8437 23.5608 68.8463 23.0802 70.1886 22.8896C70.9758 22.7819 72.5501 22.5831 72.9396 22.2682V23.768C72.9396 25.1849 71.7961 26.3863 69.9897 26.3863Z" fill="#101828"/>
<path d="M85.3022 15.6063H82.7916V12.557H79.7921V15.6063H77.9857V17.9263H79.7921V25.0026C79.7755 27.3972 81.5155 28.5738 83.7693 28.5075C84.6228 28.4827 85.2111 28.317 85.5342 28.2093L85.0288 25.8643C84.8631 25.9057 84.5234 25.9803 84.1505 25.9803C83.3965 25.9803 82.7916 25.7152 82.7916 24.5054V17.9263H85.3022V15.6063Z" fill="#101828"/>
<path d="M91.4732 28.5904C93.4701 28.5904 94.6633 27.6541 95.2102 26.5852H95.3096V28.3335H98.1932V19.8155C98.1932 16.4514 95.4505 15.4405 93.0227 15.4405C90.3463 15.4405 88.2914 16.6337 87.6285 18.9538L90.4292 19.3515C90.7275 18.4815 91.5727 17.7358 93.0393 17.7358C94.4313 17.7358 95.1936 18.4484 95.1936 19.6995V19.7493C95.1936 20.611 94.2905 20.6524 92.045 20.8927C89.5757 21.1579 87.2142 21.8953 87.2142 24.7623C87.2142 27.2647 89.0454 28.5904 91.4732 28.5904ZM92.2521 26.3863C91.0009 26.3863 90.106 25.8146 90.106 24.7126C90.106 23.5608 91.1086 23.0802 92.451 22.8896C93.2381 22.7819 94.8125 22.5831 95.2019 22.2682V23.768C95.2019 25.1849 94.0584 26.3863 92.2521 26.3863Z" fill="#101828"/>
<path d="M104.209 11.3638H101.209V28.3335H104.209V11.3638Z" fill="#101828"/>
<path d="M112.845 28.5821C116.574 28.5821 118.943 25.9555 118.943 22.0196C118.943 18.0755 116.574 15.4405 112.845 15.4405C109.116 15.4405 106.746 18.0755 106.746 22.0196C106.746 25.9555 109.116 28.5821 112.845 28.5821ZM112.861 26.1792C110.798 26.1792 109.787 24.3397 109.787 22.0113C109.787 19.683 110.798 17.8186 112.861 17.8186C114.891 17.8186 115.902 19.683 115.902 22.0113C115.902 24.3397 114.891 26.1792 112.861 26.1792Z" fill="#101828"/>
<path d="M127.024 33.3714C130.463 33.3714 132.998 31.7971 132.998 28.5407V15.6063H130.04V17.7109H129.875C129.419 16.7912 128.466 15.4405 126.22 15.4405C123.279 15.4405 120.967 17.7441 120.967 21.9285C120.967 26.0798 123.279 28.1513 126.212 28.1513C128.391 28.1513 129.411 26.9829 129.875 26.0466H130.024V28.4578C130.024 30.3305 128.781 31.1011 127.074 31.1011C125.268 31.1011 124.472 30.2476 124.108 29.5019L121.406 30.1565C121.953 31.9379 123.784 33.3714 127.024 33.3714ZM127.049 25.798C125.069 25.798 124.025 24.2568 124.025 21.9119C124.025 19.6001 125.052 17.9015 127.049 17.9015C128.98 17.9015 130.04 19.5007 130.04 21.9119C130.04 24.3397 128.963 25.798 127.049 25.798Z" fill="#101828"/>
</svg>
