<svg width="60" height="238" viewBox="0 0 60 238" fill="none" xmlns="http://www.w3.org/2000/svg">
<rect x="29" y="60" width="2" height="178" fill="url(#paint0_linear_7001_1430)"/>
<circle cx="30" cy="30" r="30" fill="#740045"/>
<path d="M20.5896 41.3334C20.0667 41.3334 19.6155 41.1435 19.2359 40.764C18.8563 40.3843 18.6665 39.9331 18.6665 39.4103V20.5898C18.6665 20.067 18.8563 19.6157 19.2359 19.2361C19.6155 18.8565 20.0667 18.6667 20.5896 18.6667H39.41C39.9329 18.6667 40.3841 18.8565 40.7637 19.2361C41.1433 19.6157 41.3331 20.067 41.3331 20.5898V39.4103C41.3331 39.9331 41.1433 40.3843 40.7637 40.764C40.3841 41.1435 39.9329 41.3334 39.41 41.3334H20.5896ZM23.5921 36.3539H32.1434V34.8411H23.5921V36.3539ZM23.5921 30.7564H36.4075V29.2436H23.5921V30.7564ZM23.5921 25.159H36.4075V23.6462H23.5921V25.159Z" fill="white"/>
<defs>
<linearGradient id="paint0_linear_7001_1430" x1="30" y1="60" x2="30" y2="238" gradientUnits="userSpaceOnUse">
<stop stop-color="#740045"/>
<stop offset="1" stop-color="#740045" stop-opacity="0"/>
</linearGradient>
</defs>
</svg>
