<svg width="60" height="238" viewBox="0 0 60 238" fill="none" xmlns="http://www.w3.org/2000/svg">
<rect x="29" y="60" width="2" height="178" fill="url(#paint0_linear_7001_1440)"/>
<circle cx="30" cy="30" r="30" fill="#1A1317"/>
<path d="M30 34.8717C31.542 34.8717 32.8527 34.335 33.9321 33.2616C35.0115 32.1882 35.5512 30.879 35.5512 29.3341C35.5512 27.8076 35.0071 26.5096 33.919 25.4401C32.8308 24.3706 31.5245 23.8179 30 23.782V25.1282C31.1726 25.1504 32.1666 25.5681 32.982 26.3812C33.7974 27.1944 34.2051 28.1818 34.2051 29.3434C34.2051 30.505 33.7963 31.4925 32.9786 32.3057C32.1609 33.119 31.1681 33.5256 30 33.5256C29.2768 33.5256 28.603 33.3552 27.9784 33.0145C27.3539 32.6737 26.8406 32.1962 26.4384 31.582L25.3128 32.2795C25.8376 33.0743 26.5075 33.7051 27.3224 34.1717C28.1373 34.6384 29.0298 34.8717 30 34.8717ZM25.1383 30.4282C25.376 30.4282 25.5769 30.347 25.741 30.1846C25.9051 30.0221 25.9872 29.8208 25.9872 29.5805C25.9872 29.3403 25.9033 29.1373 25.7354 28.9716C25.5676 28.8059 25.3617 28.7231 25.1179 28.7231C24.8777 28.7231 24.6784 28.806 24.5198 28.9719C24.3613 29.1378 24.282 29.343 24.282 29.5874C24.282 29.8318 24.3629 30.0331 24.5246 30.1911C24.6864 30.3492 24.891 30.4282 25.1383 30.4282ZM25.8245 27.641C26.0648 27.641 26.2678 27.5619 26.4335 27.4038C26.5992 27.2457 26.682 27.0457 26.682 26.8038C26.682 26.5619 26.599 26.3568 26.4329 26.1884C26.2667 26.0201 26.0613 25.9359 25.8165 25.9359C25.5717 25.9359 25.3706 26.0213 25.2131 26.1923C25.0556 26.3633 24.9769 26.5697 24.9769 26.8115C24.9769 27.0534 25.0581 27.2521 25.2205 27.4077C25.3829 27.5632 25.5843 27.641 25.8245 27.641ZM27.7409 25.782C27.9786 25.782 28.1795 25.7008 28.3436 25.5384C28.5077 25.376 28.5897 25.1747 28.5897 24.9344C28.5897 24.6941 28.5058 24.4911 28.338 24.3254C28.1701 24.1597 27.9643 24.0769 27.7205 24.0769C27.4803 24.0769 27.281 24.1598 27.1224 24.3257C26.9639 24.4916 26.8846 24.6968 26.8846 24.9412C26.8846 25.1857 26.9655 25.3869 27.1272 25.545C27.289 25.703 27.4935 25.782 27.7409 25.782ZM30 42.6204C27.1025 41.8256 24.7115 40.1012 22.8269 37.4474C20.9423 34.7935 20 31.8547 20 28.6307V21.1077L30 17.3641L39.9999 21.1077V28.6307C39.9999 31.8547 39.0576 34.7935 37.173 37.4474C35.2884 40.1012 32.8974 41.8256 30 42.6204Z" fill="white"/>
<defs>
<linearGradient id="paint0_linear_7001_1440" x1="30" y1="60" x2="30" y2="238" gradientUnits="userSpaceOnUse">
<stop stop-color="#230917"/>
<stop offset="1" stop-color="#230917" stop-opacity="0"/>
</linearGradient>
</defs>
</svg>
