<svg width="60" height="238" viewBox="0 0 60 238" fill="none" xmlns="http://www.w3.org/2000/svg">
<rect x="29" y="60" width="2" height="178" fill="url(#paint0_linear_7001_1471)"/>
<circle cx="30" cy="30" r="30" fill="#740045"/>
<path d="M33.3412 43.8973C32.8199 43.8973 32.3818 43.7178 32.0271 43.3588C31.6724 42.9998 31.4951 42.5639 31.4951 42.0511V33.4358C31.4951 32.923 31.6724 32.4871 32.0271 32.1281C32.3818 31.7691 32.8199 31.5897 33.3412 31.5897H41.9565C42.4694 31.5897 42.9053 31.7691 43.2642 32.1281C43.6232 32.4871 43.8027 32.923 43.8027 33.4358V42.0511C43.8027 42.5639 43.6232 42.9998 43.2642 43.3588C42.9053 43.7178 42.4694 43.8973 41.9565 43.8973H33.3412ZM33.3412 42.0511H41.9565V41.0626C41.4437 40.4242 40.8181 39.9165 40.0796 39.5396C39.3412 39.1627 38.5309 38.9742 37.6489 38.9742C36.7668 38.9742 35.9544 39.1635 35.2117 39.5421C34.469 39.9206 33.8455 40.4271 33.3412 41.0614V42.0511ZM37.6489 37.7435C38.1617 37.7435 38.5976 37.564 38.9566 37.205C39.3155 36.846 39.495 36.4101 39.495 35.8973C39.495 35.3845 39.3155 34.9486 38.9566 34.5896C38.5976 34.2307 38.1617 34.0512 37.6489 34.0512C37.1275 34.0512 36.6895 34.2307 36.3348 34.5896C35.9801 34.9486 35.8027 35.3845 35.8027 35.8973C35.8027 36.4101 35.9801 36.846 36.3348 37.205C36.6895 37.564 37.1275 37.7435 37.6489 37.7435ZM27.3566 42.6665L26.754 38.6588C26.2976 38.5033 25.8062 38.2772 25.2797 37.9806C24.7532 37.684 24.2993 37.3699 23.9181 37.0383L20.1899 38.7357L17.5259 34.0255L20.8951 31.5461C20.8507 31.3119 20.8186 31.0563 20.7989 30.7794C20.7793 30.5025 20.7694 30.249 20.7694 30.0191C20.7694 29.7892 20.7793 29.5358 20.7989 29.2589C20.8186 28.9819 20.8507 28.7135 20.8951 28.4537L17.5259 25.9614L20.1899 21.2897L23.9053 22.9615C24.3122 22.6298 24.7703 22.3179 25.2797 22.0256C25.7891 21.7332 26.2763 21.5162 26.7412 21.3743L27.3566 17.3333H32.6437L33.2463 21.3538C33.7369 21.535 34.2275 21.7597 34.7181 22.0281C35.2087 22.2965 35.6506 22.6076 36.0437 22.9615L39.8232 21.2897L42.4745 25.9614L38.9899 28.564C38.9899 28.5811 38.992 28.5982 38.9963 28.6153C39.0005 28.6324 39.0027 28.6495 39.0027 28.6666H33.453C33.18 27.969 32.7303 27.3907 32.1038 26.9319C31.4774 26.473 30.7634 26.2435 29.9617 26.2435C28.9273 26.2435 28.0426 26.6088 27.3077 27.3395C26.5728 28.0701 26.2053 28.9569 26.2053 29.9999C26.2053 30.8101 26.425 31.5264 26.8643 32.1486C27.3036 32.7708 27.8728 33.2246 28.572 33.5101V42.6665H27.3566Z" fill="white"/>
<defs>
<linearGradient id="paint0_linear_7001_1471" x1="30" y1="60" x2="30" y2="238" gradientUnits="userSpaceOnUse">
<stop stop-color="#740045"/>
<stop offset="1" stop-color="#740045" stop-opacity="0"/>
</linearGradient>
</defs>
</svg>
