<svg width="60" height="238" viewBox="0 0 60 238" fill="none" xmlns="http://www.w3.org/2000/svg">
<rect x="29" y="60" width="2" height="178" fill="url(#paint0_linear_7001_1481)"/>
<circle cx="30" cy="30" r="30" fill="#1A1317"/>
<path d="M19.2566 43.9999C18.7337 43.9999 18.2825 43.8101 17.9029 43.4305C17.5233 43.0509 17.3335 42.5997 17.3335 42.0768V23.0462H18.8463V42.0768C18.8463 42.1794 18.889 42.2734 18.9745 42.3589C19.06 42.4444 19.154 42.4871 19.2566 42.4871H34.2539V43.9999H19.2566V43.9999ZM23.6156 39.6409C23.0927 39.6409 22.6415 39.4511 22.2619 39.0715C21.8823 38.6919 21.6925 38.2407 21.6925 37.7178V17.9231C21.6925 17.4002 21.8823 16.949 22.2619 16.5694C22.6415 16.1898 23.0927 16 23.6156 16H34.5232L41.3334 22.8102V37.7178C41.3334 38.2407 41.1436 38.6919 40.764 39.0715C40.3844 39.4511 39.9332 39.6409 39.4103 39.6409H23.6156ZM33.7668 23.4589H39.8206L33.7668 17.5128V23.4589Z" fill="white"/>
<defs>
<linearGradient id="paint0_linear_7001_1481" x1="30" y1="60" x2="30" y2="238" gradientUnits="userSpaceOnUse">
<stop stop-color="#230917"/>
<stop offset="1" stop-color="#230917" stop-opacity="0"/>
</linearGradient>
</defs>
</svg>
