<svg width="60" height="238" viewBox="0 0 60 238" fill="none" xmlns="http://www.w3.org/2000/svg">
<rect x="29" y="60" width="2" height="178" fill="url(#paint0_linear_7001_1420)"/>
<circle cx="30" cy="30" r="30" fill="#1A1317"/>
<path d="M29.2436 37.8154H30.7564V33.5923H34.9999V32.0795H30.7564V27.8359H29.2436V32.0795H25V33.5923H29.2436V37.8154ZM21.9231 42.6666C21.4002 42.6666 20.949 42.4768 20.5694 42.0972C20.1898 41.7176 20 41.2664 20 40.7435V19.2565C20 18.7336 20.1898 18.2824 20.5694 17.9028C20.949 17.5232 21.4002 17.3334 21.9231 17.3334H33.5077L39.9999 23.8256V40.7435C39.9999 41.2664 39.8101 41.7176 39.4305 42.0972C39.0509 42.4768 38.5997 42.6666 38.0768 42.6666H21.9231ZM32.7513 24.5077H38.4871L32.7513 18.8462V24.5077Z" fill="white"/>
<defs>
<linearGradient id="paint0_linear_7001_1420" x1="30" y1="60" x2="30" y2="238" gradientUnits="userSpaceOnUse">
<stop stop-color="#230917"/>
<stop offset="1" stop-color="#230917" stop-opacity="0"/>
</linearGradient>
</defs>
</svg>
