<svg width="60" height="238" viewBox="0 0 60 238" fill="none" xmlns="http://www.w3.org/2000/svg">
<rect x="29" y="60" width="2" height="178" fill="url(#paint0_linear_7001_1410)"/>
<circle cx="30" cy="30" r="30" fill="#740045"/>
<path d="M30.0001 37.3333C28.0668 37.3333 26.4062 36.6876 25.0181 35.3961C23.6301 34.1047 22.8549 32.5009 22.6925 30.5846L24.3053 31.0846C24.5576 32.447 25.2099 33.5769 26.2622 34.4744C27.3146 35.3718 28.5605 35.8205 30.0001 35.8205C31.6155 35.8205 32.9894 35.2543 34.1219 34.1218C35.2544 32.9893 35.8206 31.6154 35.8206 30C35.8206 28.571 35.3698 27.3257 34.4681 26.2641C33.5664 25.2026 32.4386 24.5453 31.0848 24.2923L30.5925 22.6924C32.495 22.8548 34.0941 23.63 35.3898 25.018C36.6856 26.406 37.3334 28.0667 37.3334 30C37.3334 32.0456 36.6226 33.7792 35.201 35.2008C33.7793 36.6225 32.0457 37.3333 30.0001 37.3333ZM30.0024 42.6666C28.2505 42.6666 26.6037 42.3341 25.0622 41.6691C23.5207 41.0041 22.1798 40.1016 21.0395 38.9616C19.8992 37.8216 18.9964 36.4811 18.3313 34.94C17.6661 33.3989 17.3335 31.7522 17.3335 30C17.3335 29.8342 17.3369 29.6684 17.3438 29.5026C17.3506 29.3368 17.3651 29.171 17.3874 29.0051L18.8463 29.4513V30C18.8463 33.1043 19.9292 35.7393 22.095 37.9051C24.2608 40.0709 26.8959 41.1538 30.0001 41.1538C33.1044 41.1538 35.7394 40.0709 37.9053 37.9051C40.0711 35.7393 41.154 33.1043 41.154 30C41.154 26.8957 40.0711 24.2607 37.9053 22.0949C35.7394 19.9291 33.1044 18.8462 30.0001 18.8462H29.4514L28.9925 17.3872C29.1604 17.365 29.3283 17.3505 29.4963 17.3436C29.6642 17.3368 29.8322 17.3334 30.0001 17.3334C31.7524 17.3334 33.399 17.6658 34.9401 18.3307C36.4812 18.9956 37.8218 19.8979 38.9618 21.0377C40.1018 22.1775 41.0043 23.5178 41.6693 25.0587C42.3343 26.5995 42.6668 28.2459 42.6668 29.9978C42.6668 31.7497 42.3343 33.3964 41.6694 34.9379C41.0045 36.4794 40.1022 37.8204 38.9624 38.9606C37.8226 40.101 36.4823 41.0037 34.9415 41.6689C33.4006 42.3341 31.7543 42.6666 30.0024 42.6666ZM28.1873 30.1923L22.1411 24.1333L20.6924 28.5127L17.3335 17.3334L28.5128 20.6923L24.1334 22.141L30.1924 28.1872L28.1873 30.1923Z" fill="white"/>
<defs>
<linearGradient id="paint0_linear_7001_1410" x1="30" y1="60" x2="30" y2="238" gradientUnits="userSpaceOnUse">
<stop stop-color="#740045"/>
<stop offset="1" stop-color="#740045" stop-opacity="0"/>
</linearGradient>
</defs>
</svg>
