<svg width="60" height="238" viewBox="0 0 60 238" fill="none" xmlns="http://www.w3.org/2000/svg">
<rect x="29" y="60" width="2" height="178" fill="url(#paint0_linear_7001_1461)"/>
<circle cx="30" cy="30" r="30" fill="#1A1317"/>
<path d="M34.8437 42.8461L29.8489 37.8641L30.936 36.7769L34.8437 40.6718L42.836 32.6667L43.9232 33.7538L34.8437 42.8461V42.8461ZM19.2566 39.7025C18.7267 39.7025 18.2737 39.5166 17.8976 39.1448C17.5215 38.773 17.3335 38.3179 17.3335 37.7794V21.9231C17.3335 21.3932 17.5215 20.9402 17.8976 20.5641C18.2737 20.188 18.7267 20 19.2566 20H40.6693C41.2078 20 41.6629 20.188 42.0347 20.5641C42.4065 20.9402 42.5924 21.3932 42.5924 21.9231V29.8128L34.7899 37.6025L30.936 33.7615L26.7924 37.9179L28.6103 39.7025H19.2566ZM29.9463 30.0871L41.0796 22.8538L40.7591 21.5128L29.9463 28.4974L19.1463 21.5128L18.8463 22.8538L29.9463 30.0871Z" fill="white"/>
<defs>
<linearGradient id="paint0_linear_7001_1461" x1="30" y1="60" x2="30" y2="238" gradientUnits="userSpaceOnUse">
<stop stop-color="#230917"/>
<stop offset="1" stop-color="#230917" stop-opacity="0"/>
</linearGradient>
</defs>
</svg>
