<svg width="60" height="238" viewBox="0 0 60 238" fill="none" xmlns="http://www.w3.org/2000/svg">
<rect x="29" y="60" width="2" height="178" fill="url(#paint0_linear_7001_1451)"/>
<circle cx="30" cy="30" r="30" fill="#740045"/>
<path d="M27.9206 39.9999H19.2566C18.7318 39.9999 18.2801 39.8106 17.9015 39.432C17.5228 39.0533 17.3335 38.6016 17.3335 38.0768V21.9231C17.3335 21.3983 17.5228 20.9466 17.9015 20.568C18.2801 20.1893 18.7318 20 19.2566 20H40.7437C41.2685 20 41.7202 20.1893 42.0988 20.568C42.4774 20.9466 42.6668 21.3983 42.6668 21.9231V28.9538H41.5232L33.7283 36.7486L29.6104 32.6179L25.0745 37.1538L27.9206 39.9999ZM33.7283 42.3589L28.5232 37.1538L29.6104 36.0666L33.7283 40.1846L41.6258 32.2871L42.6924 33.3948L33.7283 42.3589ZM18.8463 25.2051V28.9538H41.154V25.2051H18.8463Z" fill="white"/>
<defs>
<linearGradient id="paint0_linear_7001_1451" x1="30" y1="60" x2="30" y2="238" gradientUnits="userSpaceOnUse">
<stop stop-color="#740045"/>
<stop offset="1" stop-color="#740045" stop-opacity="0"/>
</linearGradient>
</defs>
</svg>
