<svg width="184" height="32" viewBox="0 0 184 32" fill="none" xmlns="http://www.w3.org/2000/svg">
<g clip-path="url(#clip0_17025_2899)">
<path d="M22.461 20.9448L11.4133 11.1771L30.6857 12.1219C31.5062 13.5678 32.1617 15.1012 32.64 16.6933L22.461 20.9448Z" fill="#FD9B07"/>
<path d="M32.6095 31.7029L0 31.5619L32.9676 17.7905C33.4442 19.3218 33.7208 20.9082 33.7905 22.5105L34.2438 30.2743C34.2521 30.4594 34.2114 30.6433 34.1257 30.8076C33.9816 31.0834 33.7632 31.3133 33.4953 31.4715C33.2274 31.6297 32.9206 31.7098 32.6095 31.7029Z" fill="#FD9B07"/>
<path d="M30.0229 11.0438C28.1331 7.76859 25.4233 5.04172 22.16 3.13143L16.8267 0L22.9219 10.7086C24.1562 10.7733 28.1829 10.9295 30.0229 11.0438Z" fill="#FD9B07"/>
<path d="M53.3413 13.7481L50.216 19.7985C50.0377 20.1503 49.7699 20.4458 49.441 20.6535C49.1306 20.8402 48.777 20.9375 48.4173 20.9353C48.0388 20.9473 47.6651 20.8463 47.3413 20.6445C47.0175 20.4428 46.7577 20.1489 46.5932 19.7985L36.1904 -0.00390625H40.3968L48.5577 15.8905L51.6 10.2658L46.3699 0.00918991H50.605L58.3609 15.8905L66.5504 0.00918991H70.4761L60.0766 19.8117C59.9051 20.157 59.6432 20.4464 59.3204 20.6472C58.9976 20.848 58.6266 20.9523 58.2492 20.9484C57.8897 20.9498 57.5363 20.8525 57.2255 20.6666C56.8969 20.4596 56.63 20.1639 56.4538 19.8117L53.3413 13.7481Z" fill="white"/>
<path d="M78.7703 14.846V11.3719H86.7889C88.0171 11.3719 88.9742 11.0131 89.6601 10.2955C90.0071 9.91936 90.2769 9.47512 90.4537 8.98923C90.6305 8.50334 90.7105 7.98576 90.689 7.46733C90.715 6.94791 90.6371 6.42853 90.4601 5.94144C90.2831 5.45436 90.0108 5.00999 89.6601 4.63592C88.9763 3.93785 88.0214 3.58881 86.7952 3.58881H76.2441V20.5675H72.7619V-0.00264828H86.792C87.8439 -0.0207201 88.8905 0.156052 89.8817 0.519264C90.7386 0.835864 91.5201 1.33745 92.1736 1.99043C92.8087 2.64131 93.2963 3.42886 93.6013 4.29666C94.2598 6.27226 94.2598 8.41775 93.6013 10.3933C93.2923 11.2764 92.8058 12.0823 92.1736 12.7583C91.5263 13.4357 90.7444 13.9609 89.8817 14.298C88.8948 14.6808 87.8464 14.8678 86.792 14.8492L78.7703 14.846Z" fill="white"/>
<path d="M97.0554 20.5675V16.9793H111.951C112.879 16.9793 113.594 16.7336 114.095 16.2421C114.348 15.9901 114.546 15.6851 114.676 15.3476C114.805 15.0101 114.864 14.6478 114.848 14.2849C114.848 13.3977 114.597 12.7322 114.095 12.2886C113.594 11.8449 112.879 11.6275 111.951 11.6362H102.818C101.96 11.6474 101.106 11.4983 100.299 11.1958C99.5872 10.9322 98.9362 10.5178 98.3875 9.97908C97.8652 9.45599 97.4552 8.82464 97.1845 8.12627C96.8968 7.37954 96.7535 6.58158 96.7625 5.77763C96.7511 4.98737 96.8825 4.20185 97.1499 3.46162C97.405 2.77053 97.8064 2.14745 98.3245 1.63816C98.8815 1.10574 99.5372 0.696217 100.252 0.434485C101.094 0.128595 101.982 -0.0194175 102.875 -0.00262156H117.131V3.58557H102.875C102.539 3.56137 102.202 3.60657 101.883 3.71857C101.564 3.83057 101.27 4.00713 101.017 4.23797C100.791 4.48358 100.616 4.77487 100.503 5.09366C100.39 5.41245 100.342 5.7519 100.362 6.09078C100.341 6.42891 100.39 6.76775 100.505 7.08489C100.62 7.40204 100.799 7.69027 101.03 7.93054C101.528 8.38597 102.18 8.62026 102.844 8.58294H111.926C113.941 8.58294 115.473 9.07442 116.52 10.0574C117.568 11.0403 118.093 12.53 118.095 14.5263C118.103 15.3445 117.974 16.158 117.714 16.9304C117.475 17.6462 117.087 18.2988 116.577 18.8419C116.036 19.4031 115.382 19.8331 114.662 20.101C113.791 20.4196 112.871 20.5732 111.948 20.5545L97.0554 20.5675Z" fill="white"/>
<path d="M121.143 20.5675V-0.00390625H139.39V3.58451H124.719V16.9595H139.429V20.5479L121.143 20.5675ZM127.292 11.6258V8.59525H138.619V11.6258H127.292Z" fill="white"/>
<path d="M145.465 5.72937V20.6821H142.099V2.13293C142.069 1.56993 142.242 1.01505 142.586 0.571239C142.749 0.381195 142.953 0.2309 143.181 0.131589C143.41 0.0322775 143.658 -0.0134745 143.907 -0.00224252C144.167 -0.00255882 144.425 0.0549553 144.66 0.166235C144.941 0.306677 145.196 0.496474 145.411 0.726764L159.68 15.0315V0.0949544H163.043V18.8094C163.078 19.377 162.905 19.9376 162.556 20.384C162.4 20.5672 162.206 20.7129 161.987 20.8104C161.769 20.9079 161.531 20.9549 161.292 20.9478C160.988 20.9374 160.689 20.8645 160.413 20.7337C160.138 20.6028 159.891 20.4166 159.689 20.1864L145.465 5.72937Z" fill="white"/>
<path d="M173.075 20.5675V3.58508H165.333V-0.00390625H184.381V3.58508H176.639V20.5675H173.075Z" fill="white"/>
<path d="M44.1904 31.1538V25.5892H48.9244V26.5614H45.1626V31.1611L44.1904 31.1538ZM45.8663 28.854V28.0015H48.6886V28.854H45.8663Z" fill="white"/>
<path d="M59.2572 31.1538C58.8829 31.1578 58.512 31.0824 58.1689 30.9325C57.843 30.7912 57.5488 30.5858 57.3038 30.3284C57.0589 30.071 56.8683 29.767 56.7433 29.4344C56.6073 29.0752 56.5396 28.6938 56.5438 28.3098C56.5383 27.9269 56.606 27.5464 56.7433 27.1889C56.8711 26.8658 57.0651 26.5729 57.3128 26.3292C57.558 26.0895 57.8493 25.9019 58.1689 25.7778C58.5158 25.6434 58.8852 25.5769 59.2572 25.5819H60.6139C60.986 25.5791 61.3553 25.6468 61.7022 25.7814C62.0262 25.9045 62.3205 26.0948 62.5656 26.34C62.8107 26.5851 63.0011 26.8794 63.1241 27.2034C63.2611 27.556 63.3288 27.9316 63.3236 28.3098C63.3266 28.6941 63.2577 29.0755 63.1205 29.4344C62.9257 29.9475 62.5773 30.388 62.1228 30.6957C61.6684 31.0034 61.13 31.1634 60.5812 31.1538H59.2572ZM60.6139 30.178C60.8556 30.1821 61.0954 30.1352 61.3176 30.0402C61.5263 29.958 61.7163 29.8346 61.8763 29.6774C62.0346 29.51 62.158 29.3127 62.239 29.097C62.3271 28.8653 62.3713 28.6193 62.3696 28.3715C62.3723 28.1236 62.328 27.8774 62.239 27.646C62.1607 27.4327 62.0381 27.2384 61.8793 27.0758C61.7205 26.9133 61.5291 26.7861 61.3176 26.7028C61.0946 26.6108 60.8551 26.5651 60.6139 26.5686H59.2572C59.0195 26.5654 58.7836 26.6111 58.5643 26.7028C58.3599 26.7869 58.1738 26.9102 58.0166 27.0656C57.8594 27.2298 57.7362 27.4233 57.6538 27.6351C57.5643 27.8664 57.52 28.1127 57.5232 28.3606C57.5215 28.6085 57.5658 28.8545 57.6538 29.0861C57.7361 29.3012 57.8593 29.4983 58.0166 29.6665C58.1774 29.8323 58.3704 29.9634 58.5838 30.052C58.7971 30.1406 59.0262 30.1847 59.2572 30.1816L60.6139 30.178Z" fill="white"/>
<path d="M76.1159 31.1538L74.7048 29.6049H72.619V28.7451H74.9406C75.0863 28.7565 75.2328 28.7368 75.3703 28.6874C75.5079 28.638 75.6334 28.56 75.7386 28.4586C75.9311 28.2262 76.0272 27.9289 76.0071 27.6279C76.0189 27.481 76.0002 27.3334 75.9521 27.1941C75.904 27.0549 75.8276 26.9272 75.7278 26.8189C75.5116 26.631 75.23 26.5358 74.9442 26.5541H71.9152V31.1538H70.943V25.5892H74.9333C75.2237 25.5844 75.5125 25.6324 75.7858 25.7307C76.0247 25.8174 76.2415 25.956 76.4202 26.1367C76.599 26.3174 76.7354 26.5355 76.8196 26.7754C76.9144 27.047 76.961 27.333 76.9575 27.6206C76.9712 28.0308 76.8667 28.4362 76.6564 28.7887C76.4546 29.101 76.1566 29.3391 75.8075 29.467L77.4871 31.1611L76.1159 31.1538Z" fill="white"/>
<path d="M92.3395 31.1538L91.273 27.2361L89.695 30.8636C89.6505 30.9695 89.5807 31.0629 89.4918 31.1357C89.4086 31.2021 89.3045 31.2368 89.198 31.2336C89.0873 31.2341 88.9794 31.1991 88.8899 31.1339C88.8005 31.0686 88.7343 30.9764 88.701 30.8709L87.1303 27.2433L86.0638 31.1611H85.1062L86.5572 25.9193C86.5725 25.8042 86.6307 25.6992 86.7202 25.6252C86.8097 25.5512 86.9237 25.5138 87.0396 25.5203C87.1411 25.5204 87.2405 25.5494 87.3262 25.6037C87.4177 25.663 87.4887 25.7492 87.5294 25.8504L89.2452 29.7862L90.9646 25.8504C90.9954 25.7522 91.0575 25.6669 91.1413 25.6073C91.2251 25.5477 91.3261 25.5171 91.429 25.5203C91.5422 25.5182 91.6523 25.5577 91.7385 25.6312C91.8246 25.7047 91.881 25.8071 91.8969 25.9193L93.3225 31.1611L92.3395 31.1538Z" fill="white"/>
<path d="M110.244 29.9907V29.0475H112.483C112.826 29.0475 113.091 28.9494 113.285 28.7562C113.475 28.5629 113.573 28.3062 113.573 27.9889C113.573 27.6658 113.478 27.412 113.288 27.2216C113.097 27.0312 112.829 26.9389 112.489 26.9389H109.543V31.5368H108.571V25.9639H112.489C112.812 25.9639 113.097 26.0101 113.351 26.1053C113.605 26.2004 113.818 26.3331 113.991 26.5033C114.165 26.6735 114.297 26.8841 114.39 27.1293C114.482 27.3744 114.528 27.6514 114.528 27.9571C114.528 28.26 114.482 28.534 114.39 28.7821C114.297 29.0302 114.165 29.2436 113.991 29.4225C113.818 29.6013 113.605 29.7398 113.351 29.8407C113.097 29.9417 112.812 29.9907 112.489 29.9907H110.244Z" fill="white"/>
<path d="M122.147 31.5398V25.9668H123.119V30.5648H126.866V31.5369H122.147V31.5398Z" fill="white"/>
<path d="M139.551 25.9668H140.5V29.0793C140.5 29.5091 140.445 29.8841 140.332 30.2014C140.22 30.5215 140.044 30.784 139.804 30.9946C139.565 31.2052 139.253 31.3609 138.873 31.4619C138.492 31.5629 138.03 31.6148 137.488 31.6148C136.952 31.6148 136.493 31.5629 136.112 31.4619C135.731 31.3609 135.42 31.2052 135.18 30.9946C134.941 30.784 134.765 30.5215 134.653 30.2014C134.54 29.8812 134.485 29.5091 134.485 29.0793V25.9668H135.489V29.0793C135.489 29.3591 135.524 29.6014 135.593 29.8004C135.662 29.9994 135.775 30.1639 135.93 30.2908C136.086 30.4177 136.294 30.5129 136.556 30.5706C136.816 30.6283 137.139 30.66 137.523 30.66C137.906 30.66 138.227 30.6312 138.489 30.5706C138.749 30.5129 138.959 30.4177 139.115 30.2908C139.271 30.1639 139.383 29.9994 139.452 29.8004C139.522 29.6014 139.556 29.362 139.556 29.0793V25.9668H139.551Z" fill="white"/>
<path d="M150.819 31.5398C150.432 31.5398 150.071 31.4677 149.743 31.3206C149.414 31.1734 149.128 30.9744 148.886 30.7235C148.644 30.4696 148.453 30.1696 148.321 29.8235C148.185 29.4773 148.119 29.0995 148.119 28.6956C148.119 28.286 148.185 27.9139 148.321 27.5764C148.456 27.2389 148.646 26.9505 148.889 26.7139C149.131 26.4774 149.417 26.2928 149.748 26.163C150.077 26.0332 150.438 25.9668 150.824 25.9668H153.844V26.9389H150.824C150.573 26.9389 150.343 26.9851 150.129 27.0716C149.916 27.161 149.734 27.2851 149.581 27.4437C149.428 27.6024 149.307 27.7899 149.221 28.012C149.134 28.2312 149.091 28.4735 149.091 28.7389C149.091 28.9985 149.134 29.2437 149.221 29.4658C149.307 29.6908 149.428 29.8841 149.581 30.0456C149.734 30.2071 149.916 30.3341 150.129 30.4264C150.343 30.5187 150.573 30.5648 150.824 30.5648H153.207V29.1168H150.692V28.2976H154.179V31.5398H150.819Z" fill="white"/>
<path d="M161.798 31.5398V25.9668H162.77V31.5398H161.798Z" fill="white"/>
<path d="M171.315 27.461V31.5398H170.389V26.4803C170.389 26.3014 170.432 26.1601 170.522 26.0562C170.611 25.9524 170.732 25.9005 170.885 25.9005C170.957 25.9005 171.027 25.9149 171.093 25.9466C171.159 25.9784 171.229 26.0274 171.301 26.0995L175.232 29.9994V25.9207H176.161V31.0263C176.161 31.2109 176.115 31.3523 176.028 31.4561C175.939 31.5571 175.824 31.609 175.679 31.609C175.521 31.609 175.374 31.5398 175.235 31.4013L171.315 27.461Z" fill="white"/>
</g>
<defs>
<clipPath id="clip0_17025_2899">
<rect width="184" height="32" fill="white" transform="translate(0 -0.00390625)"/>
</clipPath>
</defs>
</svg>
