<svg width="230" height="40" viewBox="0 0 230 40" fill="none" xmlns="http://www.w3.org/2000/svg">
<g clip-path="url(#clip0_7001_1369)">
<path d="M28.0762 26.1857L14.2667 13.9762L38.3571 15.1571C39.3827 16.9645 40.2021 18.8813 40.8 20.8714L28.0762 26.1857Z" fill="#FD9B07"/>
<path d="M40.7619 39.6333L0 39.4571L41.2095 22.2429C41.8053 24.157 42.151 26.1401 42.2381 28.1429L42.8048 37.8476C42.8151 38.079 42.7642 38.3089 42.6571 38.5143C42.477 38.859 42.204 39.1464 41.8691 39.3441C41.5342 39.5419 41.1507 39.6421 40.7619 39.6333Z" fill="#FD9B07"/>
<path d="M37.5286 13.8095C35.1664 9.7155 31.7791 6.30692 27.7 3.91905L21.0333 0.00476074L28.6524 13.3905C30.1952 13.4714 35.2286 13.6667 37.5286 13.8095Z" fill="#FD9B07"/>
<path d="M66.6768 17.19L62.7702 24.7531C62.5474 25.1928 62.2126 25.5622 61.8015 25.8218C61.4135 26.0551 60.9715 26.1767 60.5219 26.174C60.0488 26.189 59.5816 26.0627 59.1769 25.8105C58.7722 25.5583 58.4473 25.191 58.2417 24.7531L45.2383 1.32331e-10H50.4963L60.6973 19.868L64.5003 12.8372L57.9627 0.0163702H63.2565L72.9513 19.868L83.1882 0.0163702H88.0954L75.096 24.7694C74.8816 25.2011 74.5543 25.5628 74.1508 25.8138C73.7472 26.0649 73.2835 26.1952 72.8118 26.1903C72.3623 26.1921 71.9206 26.0705 71.5322 25.8382C71.1214 25.5794 70.7877 25.2097 70.5675 24.7694L66.6768 17.19Z" fill="white"/>
<path d="M98.4631 18.5623V14.2198H108.486C110.022 14.2198 111.218 13.7713 112.075 12.8742C112.509 12.4041 112.846 11.8488 113.067 11.2414C113.288 10.6341 113.388 9.98708 113.361 9.33904C113.394 8.68978 113.297 8.04054 113.075 7.43169C112.854 6.82283 112.514 6.26737 112.075 5.79978C111.221 4.92719 110.027 4.49089 108.494 4.49089H95.3053V25.7143H90.9526V0.00157246H108.49C109.805 -0.0210174 111.113 0.199948 112.352 0.653962C113.424 1.04971 114.4 1.67669 115.217 2.49292C116.011 3.30652 116.621 4.29096 117.002 5.37571C117.825 7.84521 117.825 10.5271 117.002 12.9966C116.616 14.1004 116.007 15.1078 115.217 15.9528C114.408 16.7995 113.431 17.4561 112.352 17.8773C111.119 18.3559 109.808 18.5897 108.49 18.5664L98.4631 18.5623Z" fill="white"/>
<path d="M121.32 25.7143V21.229H139.939C141.099 21.229 141.992 20.9219 142.619 20.3075C142.935 19.9925 143.182 19.6113 143.345 19.1894C143.507 18.7675 143.58 18.3147 143.56 17.861C143.56 16.7519 143.247 15.9201 142.619 15.3656C141.992 14.8111 141.099 14.5392 139.939 14.5501H128.523C127.45 14.5642 126.383 14.3777 125.374 13.9996C124.484 13.6701 123.67 13.1521 122.985 12.4787C122.332 11.8249 121.819 11.0357 121.481 10.1627C121.121 9.22931 120.942 8.23185 120.953 7.22693C120.939 6.23909 121.103 5.2572 121.438 4.3319C121.756 3.46804 122.258 2.68919 122.906 2.05258C123.602 1.38706 124.422 0.875154 125.315 0.547989C126.368 0.165627 127.478 -0.019389 128.594 0.00160587H146.414V4.48685H128.594C128.174 4.45659 127.752 4.5131 127.354 4.6531C126.955 4.79309 126.587 5.01379 126.272 5.30235C125.989 5.60935 125.77 5.97346 125.629 6.37196C125.488 6.77045 125.428 7.19476 125.453 7.61836C125.427 8.04103 125.488 8.46457 125.632 8.861C125.776 9.25743 125.999 9.61772 126.287 9.91806C126.911 10.4873 127.725 10.7802 128.555 10.7336H139.907C142.427 10.7336 144.341 11.3479 145.651 12.5766C146.96 13.8053 147.616 15.6673 147.619 18.1628C147.629 19.1855 147.468 20.2024 147.142 21.1679C146.844 22.0627 146.359 22.8784 145.721 23.5573C145.046 24.2587 144.228 24.7962 143.328 25.1312C142.239 25.5294 141.09 25.7214 139.935 25.698L121.32 25.7143Z" fill="white"/>
<path d="M151.429 25.7143V1.32331e-10H174.237V4.48552H155.899V21.2043H174.286V25.6898L151.429 25.7143ZM159.115 14.5372V10.7489H173.275V14.5372H159.115Z" fill="white"/>
<path d="M181.832 7.16659V25.8575H177.623V2.67105C177.586 1.96729 177.802 1.2737 178.233 0.718931C178.437 0.481377 178.691 0.293507 178.977 0.169369C179.263 0.0452297 179.573 -0.0119603 179.884 0.00207966C180.209 0.00168429 180.531 0.073577 180.826 0.212677C181.177 0.388229 181.495 0.625475 181.764 0.913338L199.6 18.7942V0.123576H203.804V23.5166C203.848 24.2261 203.631 24.9269 203.195 25.4849C203 25.7139 202.758 25.896 202.484 26.0179C202.211 26.1398 201.914 26.1985 201.616 26.1896C201.235 26.1766 200.861 26.0856 200.517 25.9219C200.172 25.7583 199.864 25.5256 199.612 25.2379L181.832 7.16659Z" fill="white"/>
<path d="M216.344 25.7143V4.48623H206.667V1.32331e-10H230.476V4.48623H220.799V25.7143H216.344Z" fill="white"/>
<path d="M55.2383 38.9476V31.9919H61.1557V33.2071H56.4535V38.9567L55.2383 38.9476ZM57.3332 36.0728V35.0072H60.861V36.0728H57.3332Z" fill="white"/>
<path d="M74.0717 38.9476C73.6038 38.9526 73.1402 38.8584 72.7114 38.671C72.3039 38.4944 71.9362 38.2376 71.63 37.9158C71.3239 37.5941 71.0856 37.2141 70.9294 36.7983C70.7594 36.3494 70.6747 35.8727 70.68 35.3927C70.6731 34.914 70.7578 34.4384 70.9294 33.9915C71.0892 33.5876 71.3316 33.2215 71.6413 32.9169C71.9478 32.6172 72.3118 32.3828 72.7114 32.2276C73.145 32.0596 73.6068 31.9765 74.0717 31.9828H75.7676C76.2327 31.9792 76.6943 32.0639 77.1279 32.2322C77.533 32.386 77.9009 32.6239 78.2073 32.9303C78.5137 33.2367 78.7516 33.6046 78.9054 34.0097C79.0766 34.4504 79.1612 34.9199 79.1548 35.3927C79.1585 35.8729 79.0724 36.3497 78.9009 36.7983C78.6574 37.4397 78.2218 37.9903 77.6538 38.375C77.0857 38.7597 76.4127 38.9596 75.7268 38.9476H74.0717ZM75.7676 37.7279C76.0697 37.733 76.3695 37.6743 76.6473 37.5556C76.9082 37.4529 77.1456 37.2987 77.3456 37.1021C77.5435 36.8929 77.6977 36.6462 77.799 36.3766C77.9091 36.087 77.9644 35.7795 77.9622 35.4697C77.9656 35.1599 77.9102 34.8521 77.799 34.5629C77.7011 34.2962 77.5478 34.0533 77.3493 33.8501C77.1508 33.6469 76.9116 33.4881 76.6473 33.3839C76.3685 33.2689 76.0692 33.2118 75.7676 33.2161H74.0717C73.7746 33.2121 73.4798 33.2692 73.2057 33.3839C72.9501 33.489 72.7175 33.6431 72.521 33.8374C72.3245 34.0426 72.1704 34.2845 72.0675 34.5493C71.9557 34.8383 71.9003 35.1462 71.9043 35.4561C71.9021 35.7659 71.9574 36.0734 72.0675 36.363C72.1703 36.6319 72.3243 36.8783 72.521 37.0885C72.722 37.2957 72.9633 37.4597 73.23 37.5704C73.4966 37.6811 73.783 37.7362 74.0717 37.7324L75.7676 37.7279Z" fill="white"/>
<path d="M95.1451 38.9477L93.3812 37.0115H90.7739V35.9368H93.6759C93.8581 35.951 94.0412 35.9264 94.2132 35.8647C94.3851 35.8029 94.542 35.7054 94.6735 35.5786C94.9141 35.2881 95.0342 34.9165 95.0091 34.5402C95.0238 34.3567 95.0005 34.1721 94.9404 33.9981C94.8803 33.824 94.7848 33.6643 94.6599 33.529C94.3897 33.2941 94.0378 33.1752 93.6805 33.198H89.8943V38.9477H88.679V31.9919H93.6669C94.0299 31.9859 94.3909 32.0458 94.7325 32.1687C95.0312 32.2771 95.3021 32.4504 95.5256 32.6763C95.749 32.9021 95.9195 33.1748 96.0248 33.4746C96.1432 33.8141 96.2015 34.1716 96.1971 34.5311C96.2142 35.0438 96.0836 35.5507 95.8207 35.9912C95.5685 36.3816 95.196 36.6792 94.7597 36.8392L96.8591 38.9567L95.1451 38.9477Z" fill="white"/>
<path d="M115.425 38.9476L114.091 34.0505L112.119 38.5849C112.063 38.7173 111.976 38.834 111.865 38.925C111.761 39.008 111.631 39.0513 111.498 39.0474C111.359 39.048 111.224 39.0043 111.113 38.9227C111.001 38.8411 110.918 38.7259 110.877 38.594L108.913 34.0595L107.58 38.9567H106.383L108.197 32.4045C108.216 32.2607 108.289 32.1294 108.4 32.0369C108.512 31.9444 108.655 31.8976 108.8 31.9057C108.927 31.9059 109.051 31.9421 109.158 32.01C109.272 32.0842 109.361 32.1919 109.412 32.3183L111.557 37.2382L113.706 32.3183C113.745 32.1957 113.822 32.089 113.927 32.0145C114.032 31.94 114.158 31.9018 114.286 31.9057C114.428 31.9032 114.566 31.9525 114.673 32.0444C114.781 32.1362 114.851 32.2643 114.871 32.4045L116.653 38.9567L115.425 38.9476Z" fill="white"/>
<path d="M137.806 37.4938V36.3147H140.604C141.033 36.3147 141.365 36.1921 141.606 35.9506C141.844 35.709 141.967 35.3881 141.967 34.9914C141.967 34.5876 141.848 34.2703 141.61 34.0323C141.372 33.7944 141.036 33.679 140.611 33.679H136.93V39.4264H135.714V32.4603H140.611C141.015 32.4603 141.372 32.5179 141.689 32.6369C142.006 32.7559 142.273 32.9218 142.49 33.1345C142.706 33.3473 142.872 33.6105 142.987 33.917C143.103 34.2234 143.16 34.5696 143.16 34.9518C143.16 35.3304 143.103 35.6729 142.987 35.983C142.872 36.2931 142.706 36.5599 142.49 36.7835C142.273 37.007 142.006 37.1801 141.689 37.3063C141.372 37.4325 141.015 37.4938 140.611 37.4938H137.806Z" fill="white"/>
<path d="M152.684 39.4301V32.4639H153.899V38.2114H158.583V39.4265H152.684V39.4301Z" fill="white"/>
<path d="M174.438 32.4639H175.625V36.3545C175.625 36.8917 175.556 37.3605 175.416 37.7571C175.275 38.1573 175.055 38.4854 174.756 38.7486C174.456 39.0119 174.067 39.2066 173.591 39.3328C173.115 39.459 172.538 39.5239 171.86 39.5239C171.19 39.5239 170.616 39.459 170.14 39.3328C169.664 39.2066 169.275 39.0119 168.976 38.7486C168.676 38.4854 168.457 38.1573 168.316 37.7571C168.175 37.3568 168.107 36.8917 168.107 36.3545V32.4639H169.362V36.3545C169.362 36.7042 169.405 37.0071 169.491 37.2559C169.578 37.5047 169.719 37.7102 169.913 37.8689C170.108 38.0275 170.368 38.1465 170.696 38.2186C171.02 38.2907 171.424 38.3304 171.904 38.3304C172.383 38.3304 172.783 38.2943 173.112 38.2186C173.436 38.1465 173.699 38.0275 173.894 37.8689C174.089 37.7102 174.229 37.5047 174.316 37.2559C174.402 37.0071 174.446 36.7078 174.446 36.3545V32.4639H174.438Z" fill="white"/>
<path d="M188.523 39.4301C188.04 39.4301 187.59 39.34 187.179 39.1561C186.767 38.9722 186.411 38.7234 186.108 38.4097C185.805 38.0924 185.567 37.7174 185.401 37.2847C185.231 36.852 185.149 36.3797 185.149 35.8749C185.149 35.3629 185.231 34.8978 185.401 34.4759C185.57 34.054 185.808 33.6935 186.111 33.3978C186.414 33.1021 186.771 32.8714 187.186 32.7091C187.597 32.5469 188.048 32.4639 188.531 32.4639H192.306V33.679H188.531C188.217 33.679 187.929 33.7367 187.662 33.8449C187.395 33.9567 187.168 34.1117 186.977 34.31C186.786 34.5084 186.634 34.7427 186.526 35.0204C186.418 35.2944 186.364 35.5973 186.364 35.929C186.364 36.2535 186.418 36.56 186.526 36.8376C186.634 37.1189 186.786 37.3604 186.977 37.5624C187.168 37.7643 187.395 37.9229 187.662 38.0383C187.929 38.1537 188.217 38.2114 188.531 38.2114H191.509V36.4013H188.365V35.3773H192.724V39.4301H188.523Z" fill="white"/>
<path d="M202.248 39.4301V32.4639H203.463V39.4301H202.248Z" fill="white"/>
<path d="M214.144 34.3316V39.4301H212.987V33.1057C212.987 32.8822 213.041 32.7055 213.152 32.5757C213.264 32.4459 213.416 32.381 213.607 32.381C213.697 32.381 213.783 32.399 213.866 32.4387C213.949 32.4783 214.036 32.5396 214.126 32.6298L219.041 37.5046V32.4062H220.202V38.7883C220.202 39.019 220.144 39.1957 220.036 39.3255C219.924 39.4517 219.78 39.5166 219.599 39.5166C219.401 39.5166 219.217 39.4301 219.044 39.257L214.144 34.3316Z" fill="white"/>
</g>
<defs>
<clipPath id="clip0_7001_1369">
<rect width="230" height="40" fill="white"/>
</clipPath>
</defs>
</svg>
