<svg width="38" height="38" viewBox="0 0 38 38" fill="none" xmlns="http://www.w3.org/2000/svg">
<path d="M9.5 28.4999H28.4999V26.2308H9.5V28.4999ZM18.8884 22.0845L26.1345 14.8884L24.5346 13.2885L20.0538 17.7385V7.5H17.7846V17.7385L13.3231 13.2885L11.7231 14.8884L18.8884 22.0845ZM19.0033 37.9999C16.3959 37.9999 13.9393 37.5012 11.6335 36.5039C9.32758 35.5066 7.3111 34.1447 5.584 32.4184C3.85687 30.692 2.49442 28.6764 1.49665 26.3716C0.498884 24.0667 0 21.6106 0 19.0033C0 16.3754 0.498667 13.9054 1.496 11.5931C2.49333 9.2808 3.85517 7.26944 5.5815 5.559C7.30787 3.84854 9.32347 2.49442 11.6283 1.49665C13.9332 0.498886 16.3893 0 18.9966 0C21.6245 0 24.0945 0.498669 26.4068 1.496C28.7191 2.49334 30.7305 3.84683 32.4409 5.5565C34.1514 7.2662 35.5055 9.27669 36.5033 11.588C37.501 13.8992 37.9999 16.3687 37.9999 18.9966C37.9999 21.604 37.5012 24.0606 36.5039 26.3665C35.5066 28.6723 34.1531 30.6888 32.4434 32.4159C30.7337 34.143 28.7232 35.5055 26.412 36.5033C24.1007 37.501 21.6312 37.9999 19.0033 37.9999Z" fill="white"/>
</svg>
