<svg width="38" height="43" viewBox="0 0 38 43" fill="none" xmlns="http://www.w3.org/2000/svg">
<path d="M29.7307 39.4886L35.0153 34.204L34.023 33.2117L30.4423 36.8117V28.7425H29.0384V36.8117L25.4384 33.2117L24.4461 34.204L29.7307 39.4886ZM17 18.7233L3.5538 10.9156L2.4615 11.5386C2.3974 11.5771 2.34933 11.6284 2.3173 11.6925C2.28523 11.7566 2.2692 11.8207 2.2692 11.8848V12.7809L17 21.2771L31.7307 12.7502V11.8848C31.7307 11.8207 31.7147 11.7566 31.6826 11.6925C31.6506 11.6284 31.6025 11.5771 31.5384 11.5386L30.4154 10.9156L17 18.7233ZM15.5577 38.6347L1.44235 30.4847C0.988483 30.2309 0.634633 29.877 0.3808 29.4232C0.126933 28.9693 0 28.4886 0 27.9809V12.0194C0 11.5117 0.126933 11.031 0.3808 10.5771C0.634633 10.1233 0.988483 9.76945 1.44235 9.51562L15.5577 1.36562C16.0115 1.11178 16.4923 0.984863 17 0.984863C17.5077 0.984863 17.9884 1.11178 18.4423 1.36562L32.5576 9.51562C33.0114 9.76945 33.3653 10.1233 33.6191 10.5771C33.873 11.031 33.9999 11.5117 33.9999 12.0194V22.8001C33.2819 22.4693 32.5332 22.2245 31.7537 22.0655C30.9743 21.9065 30.1781 21.8271 29.3653 21.8271C26.0038 21.8271 23.1153 23.0296 20.7 25.4348C18.2846 27.8399 17.0769 30.7437 17.0769 34.1463C17.0769 34.9976 17.1628 35.8155 17.3346 36.6001C17.5064 37.3847 17.7538 38.1321 18.0769 38.8424C17.6487 39.0039 17.2205 39.0668 16.7923 39.0309C16.3641 38.995 15.9525 38.8629 15.5577 38.6347ZM29.3653 42.7501C26.9961 42.7501 24.9647 41.9116 23.2712 40.2347C21.5776 38.5578 20.7308 36.5283 20.7308 34.1463C20.7308 31.7566 21.5776 29.7149 23.2712 28.0213C24.9647 26.3277 26.9961 25.481 29.3653 25.481C31.7345 25.481 33.7659 26.3277 35.4595 28.0213C37.1531 29.7149 37.9999 31.7566 37.9999 34.1463C37.9999 36.5283 37.1531 38.5578 35.4595 40.2347C33.7659 41.9116 31.7345 42.7501 29.3653 42.7501Z" fill="white"/>
</svg>
