<svg width="18" height="17" viewBox="0 0 18 17" fill="none" xmlns="http://www.w3.org/2000/svg">
<path d="M10.4416 1.42495L11.9083 4.35828C12.1083 4.76662 12.6416 5.15828 13.0916 5.23328L15.7499 5.67495C17.4499 5.95828 17.8499 7.19162 16.6249 8.40828L14.5583 10.475C14.2083 10.825 14.0166 11.5 14.1249 11.9833L14.7166 14.5416C15.1833 16.5666 14.1083 17.35 12.3166 16.2916L9.82492 14.8166C9.37492 14.55 8.63326 14.55 8.17492 14.8166L5.68326 16.2916C3.89992 17.35 2.81659 16.5583 3.28326 14.5416L3.87492 11.9833C3.98326 11.5 3.79159 10.825 3.44159 10.475L1.37492 8.40828C0.158257 7.19162 0.549924 5.95828 2.24992 5.67495L4.90826 5.23328C5.34992 5.15828 5.88326 4.76662 6.08326 4.35828L7.54992 1.42495C8.34992 -0.166715 9.64992 -0.166715 10.4416 1.42495Z" fill="#FFB74B"/>
</svg>
