<svg width="40" height="40" viewBox="0 0 40 40" fill="none" xmlns="http://www.w3.org/2000/svg">
<circle cx="20" cy="20" r="20" fill="#118DD3"/>
<path d="M25.0003 26.8317L27.058 24.774L26.4138 24.1298L25.4522 25.0913V23.1683H24.5484V25.0913L23.5868 24.1298L22.9426 24.774L25.0003 26.8317ZM18.5003 15.4167H21.5003V14.1731C21.5003 14.0983 21.4763 14.0369 21.4282 13.9888C21.3801 13.9407 21.3187 13.9167 21.2439 13.9167H18.7567C18.682 13.9167 18.6205 13.9407 18.5724 13.9888C18.5243 14.0369 18.5003 14.0983 18.5003 14.1731V15.4167ZM24.9956 28.5833C23.9998 28.5833 23.1544 28.2342 22.4595 27.5361C21.7645 26.838 21.417 25.991 21.417 24.9953C21.417 23.9995 21.7661 23.1541 22.4642 22.4591C23.1623 21.7642 24.0092 21.4167 25.005 21.4167C26.0008 21.4167 26.8462 21.7657 27.5412 22.4639C28.2361 23.162 28.5836 24.0089 28.5836 25.0047C28.5836 26.0005 28.2346 26.8458 27.5364 27.5408C26.8383 28.2358 25.9914 28.5833 24.9956 28.5833ZM13.7567 26.5833C13.3816 26.5833 13.0646 26.4538 12.8055 26.1947C12.5465 25.9357 12.417 25.6187 12.417 25.2435V16.7564C12.417 16.3813 12.5465 16.0642 12.8055 15.8052C13.0646 15.5462 13.3816 15.4167 13.7567 15.4167H17.417V14.1687C17.417 13.7924 17.5467 13.4757 17.8061 13.2188C18.0655 12.9618 18.383 12.8334 18.7586 12.8334H21.2494C21.625 12.8334 21.9413 12.9629 22.1982 13.2219C22.4551 13.4809 22.5836 13.798 22.5836 14.1731V15.4167H26.2439C26.619 15.4167 26.936 15.5462 27.1951 15.8052C27.4541 16.0642 27.5836 16.3813 27.5836 16.7564V20.6202C27.1966 20.3862 26.7812 20.2105 26.3375 20.0929C25.8937 19.9754 25.4479 19.9167 25.0003 19.9167C23.5847 19.9167 22.3836 20.41 21.397 21.3966C20.4103 22.3833 19.917 23.5844 19.917 25C19.917 25.2668 19.9376 25.5322 19.9787 25.7962C20.0198 26.0603 20.0789 26.3226 20.1558 26.5833H13.7567Z" fill="white"/>
</svg>
