<svg width="40" height="40" viewBox="0 0 40 40" fill="none" xmlns="http://www.w3.org/2000/svg">
<circle cx="20" cy="20" r="20" fill="#FF4E3E"/>
<path d="M24.0003 22.8477C23.386 22.8477 22.8638 22.6327 22.4338 22.2027C22.0038 21.7727 21.7888 21.2505 21.7888 20.6362C21.7888 20.0219 22.0038 19.4998 22.4338 19.0697C22.8638 18.6397 23.386 18.4247 24.0003 18.4247C24.6146 18.4247 25.1368 18.6397 25.5668 19.0697C25.9968 19.4998 26.2118 20.0219 26.2118 20.6362C26.2118 21.2505 25.9968 21.7727 25.5668 22.2027C25.1368 22.6327 24.6146 22.8477 24.0003 22.8477ZM19.2888 28.3701V26.2301C19.2888 25.9874 19.3463 25.7592 19.4613 25.5454C19.5763 25.3316 19.7372 25.1611 19.9442 25.034C20.3594 24.785 20.7904 24.5819 21.2372 24.4246C21.684 24.2673 22.1403 24.1508 22.6061 24.0753L24.0003 25.8125L25.3865 24.0753C25.8595 24.1508 26.3197 24.2673 26.7672 24.4246C27.2146 24.5819 27.647 24.7844 28.0644 25.032C28.2717 25.1581 28.43 25.3277 28.5396 25.5407C28.6491 25.7537 28.7065 25.9801 28.7118 26.2201V28.3701H19.2888ZM17.4682 26.2211V26.5833H14.7554C14.3824 26.5833 14.066 26.4521 13.8064 26.1898C13.5468 25.9274 13.417 25.612 13.417 25.2436V14.7564C13.417 14.388 13.5482 14.0726 13.8106 13.8103C14.0729 13.5479 14.3883 13.4167 14.7567 13.4167H25.2439C25.6123 13.4167 25.9277 13.5479 26.1901 13.8103C26.4524 14.0726 26.5836 14.388 26.5836 14.7564V17.5657C26.246 17.2633 25.8475 17.0275 25.3881 16.8582C24.9287 16.6888 24.4661 16.6042 24.0003 16.6042C23.9629 16.6042 23.9282 16.6055 23.8961 16.6082C23.8641 16.6109 23.8294 16.6149 23.792 16.6202V16.3045H16.2087V17.3878H21.7391C21.3577 17.6239 21.031 17.9172 20.7591 18.2676C20.4872 18.6181 20.2824 19.015 20.1445 19.4584H16.2087V20.5416H20.0083C20.0094 20.8878 20.0457 21.2241 20.1173 21.5505C20.1889 21.8769 20.301 22.1907 20.4538 22.492C20.4057 22.5134 20.359 22.5334 20.3136 22.5521C20.2682 22.5708 20.2241 22.5908 20.1814 22.6122H16.2087V23.6955H18.6862C18.2888 24.0011 17.9864 24.3795 17.7791 24.8309C17.5719 25.2823 17.4682 25.7457 17.4682 26.2211Z" fill="white"/>
</svg>
