<svg width="40" height="40" viewBox="0 0 40 40" fill="none" xmlns="http://www.w3.org/2000/svg">
<circle cx="20" cy="20" r="20" fill="#B336FF"/>
<path d="M21.9994 24.7916C22.219 24.7916 22.406 24.7148 22.5604 24.561C22.7148 24.4073 22.792 24.2206 22.792 24.0009C22.792 23.7813 22.7151 23.5943 22.5613 23.4399C22.4076 23.2855 22.2209 23.2084 22.0012 23.2084C21.7816 23.2084 21.5946 23.2852 21.4402 23.439C21.2858 23.5927 21.2087 23.7794 21.2087 23.9991C21.2087 24.2187 21.2855 24.4057 21.4393 24.5601C21.593 24.7145 21.7797 24.7916 21.9994 24.7916ZM18.0628 24.7035L22.7038 20.0625L21.9378 19.2965L17.2968 23.9375L18.0628 24.7035ZM17.9994 20.7916C18.219 20.7916 18.406 20.7148 18.5604 20.561C18.7148 20.4073 18.792 20.2206 18.792 20.0009C18.792 19.7813 18.7151 19.5943 18.5613 19.4399C18.4076 19.2855 18.2209 19.2084 18.0012 19.2084C17.7816 19.2084 17.5946 19.2852 17.4402 19.439C17.2858 19.5927 17.2087 19.7794 17.2087 19.9991C17.2087 20.2187 17.2855 20.4057 17.4393 20.5601C17.593 20.7145 17.7797 20.7916 17.9994 20.7916ZM15.7508 27.5833C15.3755 27.5833 15.0594 27.4538 14.8024 27.1948C14.5455 26.9357 14.417 26.6187 14.417 26.2436V13.7564C14.417 13.3813 14.5465 13.0643 14.8055 12.8052C15.0646 12.5462 15.3816 12.4167 15.7567 12.4167H22.2087L25.5836 15.7916V26.2436C25.5836 26.6187 25.454 26.9357 25.1948 27.1948C24.9356 27.4538 24.6184 27.5833 24.243 27.5833H15.7508ZM21.417 16.5833H24.5003L21.417 13.5V16.5833Z" fill="white"/>
</svg>
