<svg width="40" height="40" viewBox="0 0 40 40" fill="none" xmlns="http://www.w3.org/2000/svg">
<circle cx="20" cy="20" r="20" fill="#FF368B"/>
<path d="M15.6241 27.6314C15.2638 27.6314 14.9592 27.5055 14.7103 27.2536C14.4613 27.0017 14.3369 26.6956 14.3369 26.3353C14.3369 25.975 14.4628 25.6704 14.7147 25.4215C14.9666 25.1726 15.2727 25.0481 15.633 25.0481C15.9932 25.0481 16.2979 25.174 16.5468 25.4259C16.7957 25.6778 16.9202 25.9839 16.9202 26.3442C16.9202 26.7045 16.7942 27.0091 16.5423 27.258C16.2905 27.5069 15.9844 27.6314 15.6241 27.6314ZM24.3677 27.6314C24.0074 27.6314 23.7028 27.5055 23.4538 27.2536C23.2049 27.0017 23.0804 26.6956 23.0804 26.3353C23.0804 25.975 23.2064 25.6704 23.4583 25.4215C23.7101 25.1726 24.0162 25.0481 24.3765 25.0481C24.7368 25.0481 25.0414 25.174 25.2903 25.4259C25.5393 25.6778 25.6637 25.9839 25.6637 26.3442C25.6637 26.7045 25.5378 27.0091 25.2859 27.258C25.034 27.5069 24.728 27.6314 24.3677 27.6314ZM14.7054 14.2084H25.8592C26.075 14.2084 26.2321 14.2874 26.3304 14.4455C26.4287 14.6037 26.4404 14.7714 26.3656 14.9487L24.3339 19.8239C24.2301 20.0663 24.0727 20.2615 23.8617 20.4095C23.6507 20.5574 23.4111 20.6314 23.1429 20.6314H16.6045L15.6814 22.2276C15.6387 22.2917 15.6373 22.3611 15.6774 22.4359C15.7175 22.5107 15.7776 22.5481 15.8577 22.5481H25.6637V23.6314H15.8785C15.3507 23.6314 14.9645 23.4151 14.7199 22.9824C14.4752 22.5497 14.4827 22.1176 14.7423 21.6859L15.8898 19.7147L13.1285 13.2917H11.417V12.2084H13.8513L14.7054 14.2084Z" fill="white"/>
</svg>
