<svg width="40" height="40" viewBox="0 0 40 40" fill="none" xmlns="http://www.w3.org/2000/svg">
<circle cx="20" cy="20" r="20" fill="#DFBC0C"/>
<path d="M25.1638 28.1987L26.2743 27.0881L22.9603 23.774L21.8497 24.8846C21.3956 25.3387 21.1699 25.891 21.1726 26.5417C21.1753 27.1923 21.401 27.7447 21.8497 28.1987C22.3037 28.6474 22.8561 28.8731 23.5067 28.8758C24.1574 28.8785 24.7097 28.6528 25.1638 28.1987ZM27.0403 26.3221L28.1301 25.2115C28.598 24.7436 28.832 24.1921 28.832 23.5572C28.832 22.9222 28.6012 22.3768 28.1396 21.921C27.6833 21.4705 27.131 21.2452 26.4825 21.2452C25.8341 21.2452 25.2856 21.4696 24.8368 21.9183L23.7263 23.008L27.0403 26.3221ZM16.2087 17.3878H23.792V16.3045H16.2087V17.3878ZM20.0003 14.0801C20.1447 14.0801 20.2642 14.0329 20.3586 13.9385C20.4531 13.844 20.5003 13.7246 20.5003 13.5801C20.5003 13.4357 20.4531 13.3162 20.3586 13.2218C20.2642 13.1273 20.1447 13.0801 20.0003 13.0801C19.8559 13.0801 19.7364 13.1273 19.642 13.2218C19.5475 13.3162 19.5003 13.4357 19.5003 13.5801C19.5003 13.7246 19.5475 13.844 19.642 13.9385C19.7364 14.0329 19.8559 14.0801 20.0003 14.0801ZM19.3368 26.5833H14.7567C14.387 26.5833 14.0712 26.4525 13.8096 26.1908C13.5478 25.9291 13.417 25.6133 13.417 25.2436V14.7564C13.417 14.3867 13.5478 14.0709 13.8096 13.8093C14.0712 13.5475 14.387 13.4167 14.7567 13.4167H18.5276C18.5105 13.0235 18.643 12.6753 18.925 12.3718C19.207 12.0684 19.5655 11.9167 20.0003 11.9167C20.4405 11.9167 20.8016 12.0684 21.0836 12.3718C21.3657 12.6753 21.4955 13.0235 21.473 13.4167H25.2439C25.6136 13.4167 25.9294 13.5475 26.1911 13.8093C26.4528 14.0709 26.5836 14.3867 26.5836 14.7564V19.4054C26.0825 19.3948 25.5916 19.4695 25.1109 19.6298C24.6301 19.7901 24.1905 20.0369 23.792 20.3702V19.4584H16.2087V20.5416H23.6109L21.5403 22.6122H16.2087V23.6955H20.4506C20.0852 24.0801 19.8069 24.5221 19.6157 25.0216C19.4244 25.5211 19.3315 26.0416 19.3368 26.5833Z" fill="white"/>
</svg>
