<svg width="40" height="40" viewBox="0 0 40 40" fill="none" xmlns="http://www.w3.org/2000/svg">
<circle cx="20" cy="20" r="20" fill="#219FFF"/>
<path d="M16.875 24.7917H23.125V23.5417H16.875V24.7917ZM16.875 21.4583H23.125V20.2084H16.875V21.4583ZM15.2564 27.9167C14.8355 27.9167 14.4792 27.7708 14.1875 27.4792C13.8958 27.1875 13.75 26.8312 13.75 26.4103V13.5898C13.75 13.1688 13.8958 12.8125 14.1875 12.5209C14.4792 12.2292 14.8355 12.0834 15.2564 12.0834H21.875L26.25 16.4583V26.4103C26.25 26.8312 26.1041 27.1875 25.8125 27.4792C25.5208 27.7708 25.1645 27.9167 24.7435 27.9167H15.2564ZM21.25 17.0833H25L21.25 13.3334V17.0833Z" fill="white"/>
</svg>
