<svg width="40" height="40" viewBox="0 0 40 40" fill="none" xmlns="http://www.w3.org/2000/svg">
<circle cx="20" cy="20" r="20" fill="#17BD8D"/>
<path d="M24.457 26.5737L26.9009 24.0337L26.3481 23.5225L24.4302 25.5048L23.6317 24.6923L23.0997 25.2164L24.457 26.5737ZM16.3208 17.8878H23.6798V16.8045H16.3208V17.8878ZM24.9956 28.6314C23.9998 28.6314 23.1544 28.2823 22.4595 27.5842C21.7645 26.8861 21.417 26.0392 21.417 25.0434C21.417 24.0476 21.7661 23.2022 22.4642 22.5072C23.1623 21.8123 24.0092 21.4648 25.005 21.4648C26.0008 21.4648 26.8462 21.8138 27.5412 22.5119C28.2361 23.2101 28.5836 24.057 28.5836 25.0528C28.5836 26.0486 28.2346 26.8939 27.5364 27.5889C26.8383 28.2839 25.9914 28.6314 24.9956 28.6314ZM13.417 27.4871V14.7564C13.417 14.3867 13.5478 14.0709 13.8096 13.8092C14.0712 13.5475 14.387 13.4167 14.7567 13.4167H25.2439C25.6136 13.4167 25.9294 13.5475 26.1911 13.8092C26.4528 14.0709 26.5836 14.3867 26.5836 14.7564V19.8477C26.2126 19.7342 25.8301 19.6686 25.436 19.6512C25.042 19.6337 24.6505 19.6597 24.2615 19.7292V19.4584H16.3208V20.5416H21.909C21.5975 20.7465 21.3182 20.9817 21.0712 21.2474C20.8241 21.513 20.6109 21.8013 20.4314 22.1122H16.3208V23.1955H19.8561C19.7706 23.4743 19.7038 23.7628 19.6558 24.0609C19.6077 24.359 19.5836 24.664 19.5836 24.976C19.5836 25.3606 19.6296 25.7524 19.7215 26.1514C19.8133 26.5505 19.9442 26.9305 20.1141 27.2916L19.9122 27.431L18.8977 26.774L17.7952 27.4871L16.6926 26.774L15.5901 27.4871L14.4875 26.774L13.417 27.4871Z" fill="white"/>
</svg>
