<svg width="40" height="40" viewBox="0 0 40 40" fill="none" xmlns="http://www.w3.org/2000/svg">
<circle cx="20" cy="20" r="20" fill="#B1BE15"/>
<path d="M15.917 23.891L23.9073 20L15.917 16.109V18.9696L19.0003 20L15.917 21.0304V23.891ZM14.7567 26.5833C14.3816 26.5833 14.0646 26.4538 13.8055 26.1948C13.5465 25.9357 13.417 25.6187 13.417 25.2436V14.7564C13.417 14.3813 13.5465 14.0643 13.8055 13.8052C14.0646 13.5462 14.3816 13.4167 14.7567 13.4167H25.2439C25.619 13.4167 25.936 13.5462 26.1951 13.8052C26.4541 14.0643 26.5836 14.3813 26.5836 14.7564V25.2436C26.5836 25.6187 26.4541 25.9357 26.1951 26.1948C25.936 26.4538 25.619 26.5833 25.2439 26.5833H14.7567Z" fill="white"/>
</svg>
