<svg width="40" height="40" viewBox="0 0 40 40" fill="none" xmlns="http://www.w3.org/2000/svg">
<circle cx="20" cy="20" r="20" fill="#3669E9"/>
<path d="M20.4587 19.2916H21.542V17.7916H23.042V16.7084H21.542V15.2084H20.4587V16.7084H18.9587V17.7916H20.4587V19.2916ZM18.9587 22.2916H23.042V21.2084H18.9587V22.2916ZM16.7567 25.5833C16.3914 25.5833 16.0767 25.4514 15.8128 25.1875C15.5489 24.9236 15.417 24.609 15.417 24.2436V12.7564C15.417 12.391 15.5489 12.0764 15.8128 11.8125C16.0767 11.5486 16.3914 11.4167 16.7567 11.4167H23.2087L26.5836 14.7916V24.2436C26.5836 24.609 26.4517 24.9236 26.1878 25.1875C25.9239 25.4514 25.6093 25.5833 25.2439 25.5833H16.7567ZM13.7567 28.5833C13.3914 28.5833 13.0767 28.4514 12.8128 28.1875C12.5489 27.9236 12.417 27.609 12.417 27.2436V16.4167H13.5003V27.2436C13.5003 27.3077 13.527 27.3664 13.5804 27.4199C13.6339 27.4733 13.6926 27.5 13.7567 27.5H22.0836V28.5833H13.7567Z" fill="white"/>
</svg>
