<svg width="40" height="40" viewBox="0 0 40 40" fill="none" xmlns="http://www.w3.org/2000/svg">
<circle cx="20" cy="20" r="20" fill="#FFA114"/>
<path d="M23.7071 27.4551C22.7113 27.4551 21.8659 27.106 21.171 26.4079C20.476 25.7098 20.1285 24.8629 20.1285 23.8671C20.1285 22.8713 20.4776 22.0259 21.1757 21.3309C21.8738 20.636 22.7208 20.2885 23.7165 20.2885C24.7123 20.2885 25.5577 20.6375 26.2527 21.3356C26.9476 22.0338 27.2951 22.8807 27.2951 23.8765C27.2951 24.8723 26.9461 25.7177 26.248 26.4126C25.5498 27.1076 24.7029 27.4551 23.7071 27.4551ZM23.7118 25.8077C23.8158 25.8077 23.9032 25.7722 23.9741 25.7014C24.045 25.6305 24.0804 25.5431 24.0804 25.4391C24.0804 25.3351 24.045 25.2477 23.9741 25.1768C23.9032 25.1059 23.8158 25.0705 23.7118 25.0705C23.6079 25.0705 23.5204 25.1059 23.4496 25.1768C23.3787 25.2477 23.3432 25.3351 23.3432 25.4391C23.3432 25.5431 23.3787 25.6305 23.4496 25.7014C23.5204 25.7722 23.6079 25.8077 23.7118 25.8077ZM23.4522 24.5849H23.9923V24.492C23.9923 24.3339 24.0166 24.2171 24.0652 24.1418C24.1138 24.0665 24.1937 23.9802 24.3048 23.883C24.4853 23.7163 24.6173 23.5547 24.7006 23.3982C24.7839 23.2417 24.8256 23.0914 24.8256 22.9474C24.8256 22.6683 24.7317 22.4247 24.544 22.2163C24.3562 22.008 24.0801 21.9038 23.7157 21.9038C23.4629 21.9038 23.2316 21.9802 23.0218 22.133C22.8119 22.2858 22.6584 22.4818 22.5612 22.7211L23.0756 22.9183C23.1141 22.7794 23.19 22.6613 23.3032 22.5641C23.4165 22.4669 23.5527 22.4183 23.7118 22.4183C23.8746 22.4183 24.0109 22.4641 24.1208 22.5558C24.2306 22.6475 24.2855 22.785 24.2855 22.9684C24.2855 23.0589 24.2551 23.1472 24.1942 23.2332C24.1333 23.3192 24.0473 23.4108 23.9362 23.508C23.839 23.5913 23.7583 23.6739 23.6942 23.7556C23.6301 23.8373 23.5772 23.9083 23.5355 23.9686C23.5078 24.0266 23.4869 24.0893 23.473 24.1568C23.4591 24.2243 23.4522 24.3425 23.4522 24.5114V24.5849ZM20.417 16.5833H23.5003L20.417 13.5V16.5833ZM14.7567 27.5833C14.3883 27.5833 14.0729 27.4521 13.8106 27.1898C13.5482 26.9274 13.417 26.612 13.417 26.2436V13.7564C13.417 13.388 13.5482 13.0726 13.8106 12.8103C14.0729 12.5479 14.3883 12.4167 14.7567 12.4167H21.2087L24.5836 15.7916V18.6795C24.4418 18.6571 24.3013 18.6429 24.1621 18.637C24.023 18.6311 23.8798 18.6282 23.7327 18.6282C22.8662 18.6282 22.0676 18.812 21.3368 19.1795C20.606 19.547 19.9944 20.0566 19.5019 20.7084H16.2087V21.7916H18.9234C18.7834 22.0812 18.675 22.3872 18.5981 22.7098C18.5211 23.0324 18.4768 23.3652 18.465 23.7084H16.2087V24.7916H18.5418C18.6434 25.3322 18.8171 25.836 19.0628 26.3029C19.3085 26.7697 19.6253 27.1965 20.0131 27.5833H14.7567Z" fill="white"/>
</svg>
