<svg width="40" height="40" viewBox="0 0 40 40" fill="none" xmlns="http://www.w3.org/2000/svg">
<circle cx="20" cy="20" r="20" fill="#FF368B"/>
<path d="M15.2087 21.7916H24.792V20.7084H15.2087V21.7916ZM15.2087 19.0416H24.792V17.9584H15.2087V19.0416ZM15.2087 16.2916H24.792V15.2084H15.2087V16.2916ZM13.7567 24.5833C13.3816 24.5833 13.0646 24.4538 12.8055 24.1948C12.5465 23.9357 12.417 23.6187 12.417 23.2436V13.7564C12.417 13.3813 12.5465 13.0643 12.8055 12.8052C13.0646 12.5462 13.3816 12.4167 13.7567 12.4167H26.2439C26.619 12.4167 26.936 12.5462 27.1951 12.8052C27.4541 13.0643 27.5836 13.3813 27.5836 13.7564V27.1987L24.9682 24.5833H13.7567Z" fill="white"/>
</svg>
