<svg width="40" height="40" viewBox="0 0 40 40" fill="none" xmlns="http://www.w3.org/2000/svg">
<circle cx="20" cy="20" r="20" fill="#17BD8D"/>
<path d="M14.7567 26.5833C14.3883 26.5833 14.0729 26.4521 13.8106 26.1898C13.5482 25.9274 13.417 25.612 13.417 25.2436V14.7564C13.417 14.388 13.5482 14.0726 13.8106 13.8103C14.0729 13.5479 14.3883 13.4167 14.7567 13.4167H18.5276C18.5105 13.0235 18.643 12.6753 18.925 12.3718C19.207 12.0684 19.5668 11.9167 20.0043 11.9167C20.4418 11.9167 20.8016 12.0684 21.0836 12.3718C21.3657 12.6753 21.4955 13.0235 21.473 13.4167H25.2439C25.6123 13.4167 25.9277 13.5479 26.1901 13.8103C26.4524 14.0726 26.5836 14.388 26.5836 14.7564V25.2436C26.5836 25.612 26.4524 25.9274 26.1901 26.1898C25.9277 26.4521 25.6123 26.5833 25.2439 26.5833H14.7567ZM16.2087 23.6955H21.792V22.6122H16.2087V23.6955ZM16.2087 20.5416H23.792V19.4584H16.2087V20.5416ZM16.2087 17.3878H23.792V16.3045H16.2087V17.3878ZM20.0003 14.0801C20.1447 14.0801 20.2642 14.0329 20.3586 13.9385C20.4531 13.844 20.5003 13.7246 20.5003 13.5801C20.5003 13.4357 20.4531 13.3162 20.3586 13.2218C20.2642 13.1273 20.1447 13.0801 20.0003 13.0801C19.8559 13.0801 19.7364 13.1273 19.642 13.2218C19.5475 13.3162 19.5003 13.4357 19.5003 13.5801C19.5003 13.7246 19.5475 13.844 19.642 13.9385C19.7364 14.0329 19.8559 14.0801 20.0003 14.0801Z" fill="white"/>
</svg>
