<svg width="40" height="40" viewBox="0 0 40 40" fill="none" xmlns="http://www.w3.org/2000/svg">
<circle cx="20" cy="20" r="20" fill="#219FFF"/>
<path d="M14.0301 26.7115L13.2561 25.9375L21.3955 17.7981C21.1017 17.1303 21.0571 16.4997 21.2617 15.9062C21.4663 15.3128 21.8052 14.781 22.2785 14.3109C22.8073 13.7959 23.4497 13.4407 24.2056 13.2452C24.9614 13.0497 25.6257 13.2174 26.1984 13.7484C26.771 14.3071 26.9526 14.9714 26.7432 15.7412C26.5338 16.5109 26.1647 17.1602 25.6359 17.6891C25.1658 18.1485 24.6375 18.477 24.0509 18.6746C23.4644 18.8723 22.8373 18.8381 22.1695 18.5721L20.7416 20L26.6791 25.9375L25.9051 26.7115L19.9676 20.774L14.0301 26.7115ZM16.4532 20.1346L14.1327 17.8349C13.4885 17.2184 13.1543 16.4687 13.1303 15.5857C13.1062 14.7027 13.3976 13.937 14.0045 13.2885L18.6599 17.9279L16.4532 20.1346Z" fill="white"/>
</svg>
