<svg width="40" height="40" viewBox="0 0 40 40" fill="none" xmlns="http://www.w3.org/2000/svg">
<circle cx="20" cy="20" r="20" fill="#B1BE15"/>
<path d="M20.0047 21.8077C20.365 21.8077 20.6696 21.6817 20.9186 21.4299C21.1675 21.178 21.292 20.8719 21.292 20.5116C21.292 20.1513 21.166 19.8467 20.9141 19.5978C20.6623 19.3488 20.3562 19.2244 19.9959 19.2244C19.6356 19.2244 19.331 19.3503 19.0821 19.6022C18.8331 19.8541 18.7087 20.1602 18.7087 20.5205C18.7087 20.8807 18.8346 21.1854 19.0865 21.4343C19.3383 21.6832 19.6444 21.8077 20.0047 21.8077ZM17.2087 24.5512H22.792V24.04C22.792 23.7719 22.7193 23.5403 22.574 23.3453C22.4287 23.1504 22.2385 22.9984 22.0035 22.8894C21.7001 22.742 21.3766 22.6349 21.0332 22.5681C20.6897 22.5013 20.3454 22.4679 20.0003 22.4679C19.6552 22.4679 19.3109 22.5013 18.9675 22.5681C18.624 22.6349 18.3005 22.742 17.9971 22.8894C17.7621 22.9984 17.5719 23.1504 17.4266 23.3453C17.2813 23.5403 17.2087 23.7719 17.2087 24.04V24.5512ZM24.243 27.5833H15.7508C15.3755 27.5833 15.0594 27.4538 14.8024 27.1948C14.5455 26.9357 14.417 26.6187 14.417 26.2436V13.7564C14.417 13.3813 14.5465 13.0643 14.8055 12.8052C15.0646 12.5462 15.3816 12.4167 15.7567 12.4167H21.824L25.5836 16.1763V26.2436C25.5836 26.6187 25.454 26.9357 25.1948 27.1948C24.9356 27.4538 24.6184 27.5833 24.243 27.5833Z" fill="white"/>
</svg>
