<svg width="40" height="40" viewBox="0 0 40 40" fill="none" xmlns="http://www.w3.org/2000/svg">
<circle cx="20" cy="20" r="20" fill="#3662FF"/>
<path d="M20.417 27.2788L20.4971 25.5833H20.0003C18.1688 25.5833 16.6137 24.9444 15.335 23.6667C14.0563 22.3889 13.417 20.835 13.417 19.0048C13.417 17.1747 14.0567 15.6191 15.3361 14.3382C16.6155 13.0572 18.1715 12.4167 20.0041 12.4167C20.9203 12.4167 21.7767 12.59 22.5732 12.9367C23.3697 13.2834 24.0639 13.7527 24.6557 14.3446C25.2476 14.9365 25.7169 15.631 26.0636 16.4283C26.4103 17.2256 26.5836 18.0828 26.5836 19C26.5836 19.8622 26.4015 20.7006 26.0371 21.5152C25.6728 22.3298 25.1982 23.0953 24.6133 23.8117C24.0283 24.528 23.3686 25.1821 22.6341 25.774C21.8996 26.3659 21.1606 26.8675 20.417 27.2788ZM20.0243 22.8317C20.2226 22.8317 20.3911 22.7624 20.5296 22.6239C20.6682 22.4853 20.7375 22.3169 20.7375 22.1186C20.7375 21.9203 20.6682 21.7519 20.5296 21.6133C20.3911 21.4747 20.2226 21.4055 20.0243 21.4055C19.826 21.4055 19.6576 21.4747 19.5191 21.6133C19.3805 21.7519 19.3112 21.9203 19.3112 22.1186C19.3112 22.3169 19.3805 22.4853 19.5191 22.6239C19.6576 22.7624 19.826 22.8317 20.0243 22.8317ZM19.5404 20.3942H20.4923C20.503 20.0705 20.5428 19.8069 20.6117 19.6034C20.6806 19.3998 20.839 19.1741 21.0868 18.9263C21.3315 18.6955 21.5721 18.4589 21.8088 18.2164C22.0454 17.9738 22.1638 17.6122 22.1638 17.1314C22.1638 16.5182 21.9576 16.0337 21.5452 15.6779C21.1328 15.3221 20.6232 15.1443 20.0163 15.1443C19.4827 15.1443 19.0322 15.2962 18.665 15.6002C18.2977 15.9041 18.0377 16.2543 17.8849 16.6506L18.7347 17.0128C18.821 16.7714 18.9631 16.5531 19.1612 16.3582C19.3592 16.1632 19.6443 16.0657 20.0163 16.0657C20.4394 16.0657 20.7471 16.1819 20.9394 16.4142C21.1317 16.6466 21.2279 16.8942 21.2279 17.1571C21.2279 17.4701 21.1259 17.7286 20.9218 17.9327C20.7177 18.1368 20.4896 18.3579 20.2375 18.5962C19.9191 18.8974 19.7233 19.179 19.6502 19.4407C19.577 19.7025 19.5404 20.0203 19.5404 20.3942Z" fill="white"/>
</svg>
