<svg width="40" height="40" viewBox="0 0 40 40" fill="none" xmlns="http://www.w3.org/2000/svg">
<circle cx="20" cy="20" r="20" fill="#3DCC65"/>
<path d="M12.7567 26.4872C12.3914 26.4872 12.0767 26.3552 11.8128 26.0913C11.5489 25.8274 11.417 25.5128 11.417 25.1474V16.8975H12.5003V25.1474C12.5003 25.2222 12.5243 25.2837 12.5724 25.3317C12.6205 25.3798 12.682 25.4038 12.7567 25.4038H24.5355V26.4872H12.7567ZM15.34 23.9038C14.9747 23.9038 14.66 23.7719 14.3961 23.508C14.1322 23.2441 14.0003 22.9295 14.0003 22.5641V14.6603C14.0003 14.2949 14.1322 13.9803 14.3961 13.7164C14.66 13.4525 14.9747 13.3206 15.34 13.3206H26.2439C26.6231 13.3206 26.9413 13.4525 27.1982 13.7164C27.4551 13.9803 27.5836 14.2949 27.5836 14.6603V22.5641C27.5836 22.9295 27.4551 23.2441 27.1982 23.508C26.9413 23.7719 26.6231 23.9038 26.2439 23.9038H15.34ZM20.792 19.6795L26.5003 15.7163C26.5003 15.5101 26.4936 15.2989 26.4803 15.0825C26.4669 14.8662 26.4469 14.656 26.4202 14.4519L20.792 18.4007L15.1477 14.468C15.121 14.672 15.1036 14.8809 15.0956 15.0945C15.0876 15.3082 15.0836 15.5155 15.0836 15.7163L20.792 19.6795Z" fill="white"/>
</svg>
