<svg width="40" height="40" viewBox="0 0 40 40" fill="none" xmlns="http://www.w3.org/2000/svg">
<circle cx="20" cy="20" r="20" fill="#4F0074"/>
<path d="M19.1461 24.5272L23.4618 20.2115L22.6413 19.391L19.1542 22.8782L17.4506 21.1539L16.6013 21.9824L19.1461 24.5272ZM15.7508 27.5833C15.3755 27.5833 15.0594 27.4538 14.8024 27.1948C14.5455 26.9357 14.417 26.6187 14.417 26.2436V13.7564C14.417 13.3813 14.5465 13.0643 14.8055 12.8052C15.0646 12.5462 15.3816 12.4167 15.7567 12.4167H22.2087L25.5836 15.7916V26.2436C25.5836 26.6187 25.454 26.9357 25.1948 27.1948C24.9356 27.4538 24.6184 27.5833 24.243 27.5833H15.7508ZM21.417 16.5833H24.5003L21.417 13.5V16.5833Z" fill="white"/>
</svg>
