<svg width="40" height="40" viewBox="0 0 40 40" fill="none" xmlns="http://www.w3.org/2000/svg">
<circle cx="20" cy="20" r="20" fill="#FF4E3E"/>
<path d="M16.4166 26.2436V17.7645C16.4166 17.3905 16.5451 17.0724 16.802 16.8101C17.059 16.5479 17.3744 16.4167 17.7484 16.4167H26.2435C26.6174 16.4167 26.9342 16.5465 27.1938 16.8061C27.4534 17.0658 27.5833 17.3825 27.5833 17.7565V23.8237L23.8236 27.5833H17.7564C17.3824 27.5833 17.0657 27.4535 16.8061 27.1939C16.5464 26.9343 16.4166 26.6175 16.4166 26.2436ZM12.4583 15.4984C12.3942 15.1384 12.4717 14.8021 12.6907 14.4896C12.9097 14.1771 13.1992 13.9888 13.5592 13.9247L21.9006 12.4375C22.2606 12.3734 22.5934 12.4509 22.899 12.6699C23.2045 12.8889 23.3893 13.1785 23.4534 13.5385L23.6666 14.7565H17.7564C16.923 14.7565 16.2147 15.0481 15.6314 15.6315C15.048 16.2148 14.7564 16.9231 14.7564 17.7565V24.8317C14.5502 24.7505 14.3739 24.622 14.2275 24.4463C14.0812 24.2706 13.9871 24.0684 13.9455 23.8397L12.4583 15.4984ZM26.4999 23H22.9999V26.5L26.4999 23Z" fill="white"/>
</svg>
