<svg width="40" height="40" viewBox="0 0 40 40" fill="none" xmlns="http://www.w3.org/2000/svg">
<circle cx="20" cy="20" r="20" fill="#FFB74B"/>
<path d="M25.0003 25.0481C25.417 25.0481 25.7711 24.9023 26.0628 24.6106C26.3545 24.3189 26.5003 23.9648 26.5003 23.5481C26.5003 23.1314 26.3545 22.7773 26.0628 22.4856C25.7711 22.1939 25.417 22.0481 25.0003 22.0481C24.5836 22.0481 24.2295 22.1939 23.9378 22.4856C23.6461 22.7773 23.5003 23.1314 23.5003 23.5481C23.5003 23.9648 23.6461 24.3189 23.9378 24.6106C24.2295 24.9023 24.5836 25.0481 25.0003 25.0481ZM25.0051 28.0481C25.5297 28.0481 26.0177 27.9161 26.4691 27.6523C26.9204 27.3884 27.285 27.0342 27.5628 26.5898C27.1878 26.3259 26.7807 26.1279 26.3416 25.996C25.9025 25.8641 25.4546 25.7981 24.9978 25.7981C24.5412 25.7981 24.0941 25.8641 23.6566 25.996C23.2191 26.1279 22.8128 26.3259 22.4378 26.5898C22.7156 27.0342 23.0818 27.3884 23.5364 27.6523C23.991 27.9161 24.4806 28.0481 25.0051 28.0481ZM24.9956 28.6314C23.9998 28.6314 23.1544 28.2823 22.4595 27.5842C21.7645 26.8861 21.417 26.0392 21.417 25.0434C21.417 24.0476 21.7661 23.2022 22.4642 22.5072C23.1623 21.8123 24.0092 21.4648 25.005 21.4648C26.0008 21.4648 26.8462 21.8138 27.5412 22.5119C28.2361 23.2101 28.5836 24.057 28.5836 25.0528C28.5836 26.0486 28.2346 26.8939 27.5364 27.5889C26.8383 28.2839 25.9914 28.6314 24.9956 28.6314ZM16.2087 17.3878H23.792V16.3045H16.2087V17.3878ZM19.7904 26.5833H14.7567C14.3883 26.5833 14.0729 26.4521 13.8106 26.1898C13.5482 25.9274 13.417 25.612 13.417 25.2436V14.7564C13.417 14.388 13.5482 14.0726 13.8106 13.8103C14.0729 13.5479 14.3883 13.4167 14.7567 13.4167H25.2439C25.6123 13.4167 25.9277 13.5479 26.1901 13.8103C26.4524 14.0726 26.5836 14.388 26.5836 14.7564V19.8189C26.3182 19.7612 26.0512 19.7166 25.7828 19.6851C25.5143 19.6536 25.2535 19.6378 25.0003 19.6378C24.7695 19.6378 24.5374 19.6541 24.304 19.6867C24.0705 19.7193 23.8411 19.7628 23.6157 19.8173V19.4584H16.2087V20.5416H21.9426C21.5516 20.8045 21.2017 21.1098 20.893 21.4575C20.5842 21.8053 20.3262 22.1902 20.1189 22.6122H16.2087V23.6955H19.7022C19.6584 23.9102 19.6229 24.1277 19.5957 24.3478C19.5684 24.5678 19.5617 24.7853 19.5756 25C19.5895 25.2179 19.6144 25.4813 19.6502 25.79C19.6859 26.0988 19.7327 26.3632 19.7904 26.5833Z" fill="white"/>
</svg>
